<?xml version="1.0" encoding="UTF-8" standalone="no"?>
<!-- Created with Inkscape (http://www.inkscape.org/) -->

<svg
   xmlns:dc="http://purl.org/dc/elements/1.1/"
   xmlns:cc="http://creativecommons.org/ns#"
   xmlns:rdf="http://www.w3.org/1999/02/22-rdf-syntax-ns#"
   xmlns:svg="http://www.w3.org/2000/svg"
   xmlns="http://www.w3.org/2000/svg"
   xmlns:sodipodi="http://sodipodi.sourceforge.net/DTD/sodipodi-0.dtd"
   xmlns:inkscape="http://www.inkscape.org/namespaces/inkscape"
   width="416.80444mm"
   height="495.53629mm"
   viewBox="0 0 416.80444 495.53629"
   version="1.1"
   id="svg8"
   inkscape:version="0.92.2 (5c3e80d, 2017-08-06)"
   sodipodi:docname="blairhackslogo.svg">
  <defs
     id="defs2" />
  <sodipodi:namedview
     id="base"
     pagecolor="#ffffff"
     bordercolor="#666666"
     borderopacity="1.0"
     inkscape:pageopacity="0.0"
     inkscape:pageshadow="2"
     inkscape:zoom="0.35"
     inkscape:cx="103.42862"
     inkscape:cy="836.5456"
     inkscape:document-units="mm"
     inkscape:current-layer="layer1"
     showgrid="false"
     inkscape:window-width="1920"
     inkscape:window-height="1137"
     inkscape:window-x="-8"
     inkscape:window-y="-8"
     inkscape:window-maximized="1" />
  <metadata
     id="metadata5">
    <rdf:RDF>
      <cc:Work
         rdf:about="">
        <dc:format>image/svg+xml</dc:format>
        <dc:type
           rdf:resource="http://purl.org/dc/dcmitype/StillImage" />
        <dc:title></dc:title>
      </cc:Work>
    </rdf:RDF>
  </metadata>
  <g
     inkscape:label="Layer 1"
     inkscape:groupmode="layer"
     id="layer1">
    <g
       id="g826"
       transform="translate(-0.38458818,-21.750151)">
      <path
         style="fill:#676767;stroke-width:0.26458332"
         d="m 197.62411,517.15255 c -0.0694,-0.0693 -1.8843,-0.24167 -4.03319,-0.38291 -4.06535,-0.2672 -4.67842,-0.46159 -4.67842,-1.48354 0,-0.36722 -0.24467,-0.69808 -0.65416,-0.88466 -0.35979,-0.16394 -0.72613,-0.58481 -0.8141,-0.93531 -0.088,-0.35049 -0.46501,-0.77626 -0.83788,-0.94615 l -0.67794,-0.3089 0.17601,-3.23003 c 0.2797,-5.13318 0.35627,-5.47812 1.256,-5.65806 0.50109,-0.10023 0.81668,-0.35822 0.9144,-0.74753 0.0821,-0.32697 0.43946,-0.72676 0.79421,-0.88839 0.35475,-0.16163 0.77844,-0.58674 0.94153,-0.94469 0.40931,-0.89832 0.66209,-0.94938 3.31733,-0.67001 1.28231,0.13491 3.08344,0.24741 4.00252,0.24998 1.88796,0.005 2.69458,0.32094 2.69458,1.05434 0,0.27601 0.35719,0.75618 0.79375,1.06704 0.43656,0.31085 0.79375,0.78152 0.79375,1.04592 0,0.2644 0.3034,0.6795 0.67423,0.9225 0.6109,0.40026 0.66682,0.58308 0.59531,1.94632 -0.0709,1.35284 -0.15378,1.54033 -0.82124,1.85912 -0.40827,0.195 -0.85838,0.6598 -1.00023,1.03289 l -0.25792,0.67836 -2.57163,-0.17457 c -1.41441,-0.096 -3.9111,-0.25006 -5.54821,-0.34229 l -2.97656,-0.16772 v 0.70731 c 0,0.51104 0.18357,0.77713 0.66146,0.95882 0.45872,0.17441 0.66146,0.45143 0.66146,0.90387 0,0.35883 0.0981,0.71303 0.21796,0.78711 0.11988,0.0741 2.05464,0.26585 4.29948,0.42614 2.24483,0.16031 4.28379,0.35091 4.531,0.42362 1.05329,0.3097 0.75203,1.95718 -0.35789,1.95718 -0.27779,0 -0.56946,0.20836 -0.64816,0.46302 -0.33737,1.0918 -1.0267,1.70198 -1.44745,1.28122 z m 1.73943,-12.06299 c 0,-0.65828 -0.0171,-0.66289 -3.57187,-0.95726 -2.98038,-0.24683 -3.63686,-0.23506 -3.96427,0.0711 -0.29752,0.27818 -0.32289,0.47765 -0.10493,0.82497 0.30514,0.48622 2.79575,0.79303 6.05357,0.7457 1.5108,-0.022 1.5875,-0.055 1.5875,-0.68453 z m 49.37407,9.19427 c -0.35482,-0.95057 -4.04173,-23.43438 -3.94934,-24.08423 0.0668,-0.46995 0.33387,-0.63653 1.32863,-0.82875 0.88072,-0.17018 1.35425,-0.14994 1.61834,0.0692 0.23157,0.19219 0.65684,2.07351 1.11995,4.95456 0.79442,4.94202 1.08279,5.76503 1.80889,5.16242 0.23403,-0.19423 0.42551,-0.56211 0.42551,-0.81751 0,-0.79407 0.63714,-1.05995 3.82619,-1.59681 3.92726,-0.66112 4.06022,-0.65689 4.42403,0.1416 0.16576,0.3638 0.47262,0.66146 0.68193,0.66146 0.20929,0 0.69859,0.34046 1.08732,0.7566 0.38873,0.41614 0.96619,0.83897 1.28325,0.93959 0.69562,0.22077 0.70861,0.26096 1.38667,4.28633 0.69596,4.13163 0.68835,4.44259 -0.12169,4.97334 -0.40662,0.26644 -0.66145,0.68231 -0.66145,1.07948 0,0.37526 -0.2218,0.76475 -0.52917,0.92924 -0.30626,0.16391 -0.52917,0.55399 -0.52917,0.92604 0,0.35666 -0.21978,0.76047 -0.49368,0.90705 -0.46141,0.24693 -11.12555,2.13566 -12.05842,2.13566 -0.23407,0 -0.52557,-0.26789 -0.64779,-0.59531 z m 6.98218,-4.30477 c 3.62581,-0.60981 3.57188,-0.59013 3.57188,-1.30376 0,-0.65384 0.6149,-1.46907 1.10806,-1.46907 0.18262,0 0.21438,-0.58005 0.0935,-1.70842 -0.29202,-2.7269 -0.46191,-3.13245 -1.41566,-3.3796 -0.46435,-0.12033 -0.84427,-0.31168 -0.84427,-0.42524 0,-0.11353 -0.15243,-0.41489 -0.33874,-0.66969 -0.32159,-0.43979 -0.46554,-0.44048 -2.84427,-0.0138 -2.7961,0.50171 -3.16699,0.68972 -3.16699,1.60534 0,0.43452 -0.20926,0.71517 -0.66146,0.88709 -0.36381,0.13833 -0.66146,0.44805 -0.66146,0.68829 0,0.50033 0.77633,5.36112 0.93594,5.86015 0.13954,0.43627 1.32366,0.41624 4.22343,-0.0714 z m -89.09825,3.39481 c -0.79099,-0.20672 -0.78202,-1.14911 0.0512,-5.38027 0.92775,-4.71112 0.97382,-5.43108 0.36913,-5.76948 -0.24166,-0.13523 -0.56908,-0.64717 -0.72761,-1.1376 -0.27211,-0.84191 -0.38987,-0.91157 -2.10646,-1.24608 l -1.81824,-0.35433 -0.74654,0.81735 c -0.41059,0.44955 -0.93439,0.81735 -1.164,0.81735 -0.59362,0 -0.80408,0.65931 -1.73137,5.42396 -0.45314,2.32833 -0.9823,4.39481 -1.17592,4.59216 -0.43493,0.44331 -2.34154,0.18211 -2.81246,-0.38531 -0.25128,-0.30277 0.16166,-2.80882 1.99115,-12.084 1.26949,-6.43612 2.41478,-11.96991 2.54507,-12.29733 0.1303,-0.32742 0.44782,-0.59465 0.7056,-0.59383 0.87665,0.003 2.39993,0.53676 2.53497,0.88865 0.074,0.19286 -0.2697,2.36342 -0.76378,4.82349 -0.49408,2.46004 -0.89997,4.74072 -0.90198,5.06815 -0.005,0.85135 0.9894,0.8015 1.31927,-0.0662 0.30354,-0.79835 0.94865,-0.84267 3.75302,-0.25776 2.86423,0.59738 2.86157,0.596 2.86157,1.47188 0,0.57695 0.17319,0.8605 0.66146,1.08299 0.47265,0.21535 0.66145,0.50951 0.66145,1.03058 0,0.47802 0.23396,0.89964 0.67915,1.22394 l 0.67914,0.49472 -0.96276,5.01745 c -1.41682,7.3838 -1.28432,7.00775 -2.45624,6.97113 -0.5401,-0.0169 -1.19027,-0.0851 -1.44483,-0.15166 z m 115.53225,-6.56452 c -0.29793,-0.45471 -0.67403,-0.66146 -1.20328,-0.66146 -0.57774,0 -0.83261,-0.16507 -1.02134,-0.66146 -0.18854,-0.49593 -0.44373,-0.66145 -1.01968,-0.66145 -0.59251,0 -0.83344,-0.1664 -1.05341,-0.72761 -0.43405,-1.10741 -2.16024,-6.96833 -2.16024,-7.3347 0,-0.1773 0.23812,-0.53784 0.52916,-0.80124 0.29104,-0.26339 0.52917,-0.75924 0.52917,-1.10193 0,-0.34266 0.23812,-0.82693 0.52917,-1.07612 0.29104,-0.24921 0.52916,-0.77962 0.52916,-1.17874 0,-0.42212 0.19368,-0.82727 0.46302,-0.96864 0.72486,-0.38045 7.64445,-2.42144 8.20936,-2.42144 0.27832,0 0.72152,0.23812 0.98491,0.52917 0.2634,0.29104 0.69374,0.52916 0.95634,0.52916 0.2626,0 0.75017,0.28282 1.08347,0.62849 0.33332,0.34568 0.92384,0.70271 1.31225,0.79344 0.55698,0.13007 0.79624,0.43587 1.13202,1.44687 0.44495,1.33961 0.36359,2.01822 -0.27119,2.26182 -0.20868,0.0801 -0.37643,0.4949 -0.37643,0.93088 0,0.43254 -0.14658,0.88276 -0.32575,1.0005 -0.17918,0.11771 -2.53066,0.88288 -5.22552,1.70037 -4.56965,1.38615 -4.89977,1.52879 -4.89977,2.11666 0,0.47223 0.16592,0.6527 0.66146,0.71943 0.3638,0.049 0.91318,0.40005 1.22084,0.78013 l 0.55935,0.69103 4.29724,-1.26071 c 2.36344,-0.69342 4.44669,-1.20338 4.62941,-1.13326 0.67209,0.25789 0.65881,1.24404 -0.0246,1.83838 -0.45497,0.3956 -0.6115,0.74459 -0.51191,1.14138 0.0789,0.31435 -0.004,0.69263 -0.18473,0.84064 -0.32925,0.26995 -8.09768,2.70187 -8.63079,2.70187 -0.15629,0 -0.47916,-0.29766 -0.71755,-0.66146 z m 0.44024,-10.8308 c 0.64436,-0.20886 2.22088,-0.69119 3.50332,-1.0719 2.08028,-0.61751 2.3228,-0.7546 2.24896,-1.27119 -0.10089,-0.70581 -0.78415,-0.86752 -2.04492,-0.48398 -0.52154,0.15867 -1.89182,0.56457 -3.04509,0.90202 -2.13193,0.62378 -2.74952,1.09537 -2.45149,1.87198 0.20264,0.52808 0.31358,0.53136 1.78922,0.0531 z m -150.43465,9.29722 c -3.16373,-1.10831 -3.17531,-1.11545 -3.26087,-2.01186 -0.0498,-0.52197 -0.3244,-1.09276 -0.65409,-1.35972 l -0.56822,-0.46011 1.51796,-4.59341 c 0.83488,-2.52637 1.51617,-4.80549 1.51398,-5.06473 -0.002,-0.25921 -0.21233,-0.53827 -0.46699,-0.62011 -2.13911,-0.68738 -2.36437,-0.98266 -1.86784,-2.44842 0.54231,-1.60084 0.68775,-1.69416 2.34775,-1.50636 l 1.49331,0.16897 0.58877,-1.66243 c 0.32382,-0.91432 0.77699,-2.19819 1.00705,-2.85303 0.63179,-1.7984 0.84934,-1.95662 2.15333,-1.56591 1.7954,0.5379 1.81894,0.67569 0.69783,4.08435 -0.73693,2.24059 -0.92305,3.12438 -0.71162,3.37912 0.15747,0.18976 1.00097,0.55907 1.87445,0.82071 2.11416,0.63328 2.3271,0.91721 1.84713,2.46274 -0.55157,1.77613 -0.92442,1.91284 -3.15002,1.15515 -1.24703,-0.42455 -1.95359,-0.54719 -2.13091,-0.36986 -0.29156,0.29154 -2.62788,7.10509 -2.62788,7.66384 0,0.4513 1.00343,0.94546 3.33857,1.64415 2.47365,0.74011 2.61933,0.9358 2.02682,2.72237 -0.60591,1.82698 -0.87298,1.84926 -4.96851,0.41455 z m 180.21257,-8.84205 c -0.10406,-0.10404 -0.42224,-0.71607 -0.70712,-1.36007 -0.59706,-1.34974 -0.43101,-1.73085 1.01804,-2.33656 0.47926,-0.20034 0.9326,-0.52372 1.0074,-0.71864 0.0748,-0.19489 -0.32914,-1.41152 -0.89765,-2.70361 -0.56849,-1.29207 -1.85526,-4.25043 -2.85946,-6.57411 -2.61652,-6.05438 -3.05724,-6.88297 -3.67795,-6.91459 -0.29104,-0.0148 -0.65765,-0.0446 -0.81468,-0.0661 -0.42418,-0.0582 -1.53149,-2.57825 -1.29849,-2.95523 0.23497,-0.38021 3.37373,-1.84645 3.95266,-1.84645 0.56859,0 0.75758,0.40285 6.76508,14.41979 1.06026,2.47386 2.07671,4.66093 2.2588,4.86016 0.27932,0.30565 0.52049,0.28988 1.54392,-0.10099 1.42071,-0.54256 1.68654,-0.40902 2.41896,1.21518 0.35885,0.79581 0.41547,1.19925 0.21375,1.52288 -0.30893,0.49562 -7.32943,3.69218 -8.18287,3.72584 -0.30319,0.0119 -0.63635,-0.0634 -0.74039,-0.16745 z M 79.302129,481.36456 c -0.898059,-0.639 -0.976826,-0.79052 -0.826765,-1.59041 0.102452,-0.54613 0.04065,-1.03503 -0.161649,-1.27876 -0.189678,-0.22855 -0.2627,-0.71871 -0.173512,-1.16467 0.10405,-0.52025 0.02236,-0.87926 -0.251862,-1.10683 -0.291684,-0.2421 -0.358185,-0.591 -0.236381,-1.24026 0.120541,-0.64254 0.0478,-1.03788 -0.251883,-1.36904 -0.32234,-0.35618 -0.360789,-0.62494 -0.163603,-1.14358 0.279376,-0.7348 -0.218149,-1.45806 -0.768869,-1.1177 -0.156606,0.0968 -1.051268,1.3572 -1.988134,2.8009 -0.943658,1.45418 -1.885551,2.62493 -2.111809,2.62493 -0.491712,0 -2.194772,-1.07201 -2.35671,-1.48344 -0.146913,-0.37327 -0.01297,-0.61338 3.046666,-5.46192 1.40039,-2.21917 4.186661,-6.65422 6.191713,-9.85568 2.005053,-3.20146 3.750303,-5.9377 3.878332,-6.08052 0.310872,-0.34684 2.534573,0.83574 2.730129,1.4519 0.09717,0.30615 -1.075536,2.40768 -3.432175,6.15051 -1.968881,3.127 -3.579783,5.8054 -3.579783,5.95198 0,0.14661 0.171976,0.40929 0.382172,0.58373 0.305977,0.25394 0.476097,0.20748 0.853258,-0.23302 0.359809,-0.42021 0.664159,-0.51396 1.288441,-0.39685 0.567534,0.10647 0.92316,0.0259 1.163516,-0.26376 0.190386,-0.2294 0.709157,-0.41709 1.152821,-0.41709 0.443667,0 1.019604,-0.1927 1.279859,-0.42823 0.579776,-0.5247 1.393414,-0.34957 2.478891,0.53356 l 0.79375,0.64577 -0.498088,0.93511 c -0.812073,1.52458 -1.420154,2.04462 -2.170565,1.85629 -0.421537,-0.1058 -0.823386,-0.0185 -1.112319,0.24191 -0.248799,0.22416 -0.851205,0.44662 -1.338681,0.49438 -0.718161,0.0704 -1.008676,0.29471 -1.531228,1.18255 -0.598088,1.01616 -0.613363,1.12723 -0.210381,1.53022 0.303265,0.30326 0.388845,0.69162 0.2833,1.28556 -0.0944,0.53123 -0.01307,1.03354 0.216474,1.3368 0.226042,0.29861 0.313336,0.82082 0.226581,1.35541 -0.08155,0.50255 -0.01712,0.94628 0.152623,1.05119 0.531217,0.32829 0.307514,1.33596 -0.519269,2.339 -0.447159,0.54247 -0.954588,0.98631 -1.127622,0.98631 -0.173038,0 -0.761294,-0.31782 -1.307238,-0.70625 z M 341.82402,481.1235 c -0.20619,-0.24842 -0.60129,-0.36955 -0.97337,-0.29843 -0.34449,0.0659 -0.78367,-0.0376 -0.97595,-0.22984 -0.19227,-0.19227 -1.38088,-2.13066 -2.64138,-4.30752 -1.26051,-2.17686 -2.48161,-4.03075 -2.71357,-4.11978 -0.23196,-0.089 -0.82934,0.0787 -1.32752,0.37261 -1.28148,0.75608 -1.5603,0.68237 -2.3196,-0.6133 -0.90546,-1.54501 -0.85363,-1.90638 0.38571,-2.68872 1.22515,-0.7734 1.28476,-1.10403 0.44217,-2.45306 -1.67577,-2.68303 -2.29426,-3.84429 -2.29426,-4.30765 0,-0.59206 1.92215,-1.96951 2.4602,-1.76303 0.19617,0.0753 0.9951,1.23381 1.77541,2.5745 2.07484,3.565 1.92262,3.49123 4.26032,2.06389 1.7313,-1.05712 2.17382,-0.9819 3.01146,0.51191 0.84963,1.51522 0.76727,1.69871 -1.34535,2.99731 -1.04876,0.64465 -1.5584,1.12691 -1.54882,1.4656 0.0236,0.83627 3.81786,6.98035 4.31051,6.98013 0.24075,-10e-5 1.44489,-0.59936 2.67587,-1.33167 1.231,-0.73231 2.41162,-1.29775 2.62363,-1.25656 0.52454,0.10189 1.92752,2.43459 1.7471,2.90481 -0.19331,0.50374 -6.01641,3.91694 -6.68253,3.91694 -0.28765,0 -0.67916,-0.18817 -0.87003,-0.41814 z m -140.27874,-5.68995 c -4.08621,-0.96303 -7.61756,-4.80311 -8.37344,-9.10545 -0.1534,-0.87312 -0.40016,-9.08844 -0.54835,-18.25625 -0.14819,-9.16781 -0.34261,-17.97843 -0.43205,-19.57916 -0.20303,-3.63382 0.16956,-5.82002 1.35546,-7.95314 1.79181,-3.22299 5.48701,-5.70608 8.72706,-5.86436 0.87312,-0.0426 8.22973,-0.25955 16.34802,-0.48204 13.70692,-0.37566 14.88729,-0.37306 16.53646,0.0361 0.97677,0.24239 2.23426,0.67199 2.79443,0.9547 2.28337,1.15236 4.84276,4.23497 5.59705,6.74129 0.2318,0.77023 0.4324,3.4031 0.55106,7.23273 0.18351,5.9228 0.17754,6.02649 -0.36377,6.31618 -0.35048,0.18757 -2.4327,0.29454 -5.73365,0.29454 h -5.18332 l -0.2692,-0.70805 c -0.14806,-0.38942 -0.24943,-2.52005 -0.22527,-4.73475 0.0241,-2.21469 -0.0374,-4.15827 -0.13675,-4.31903 -0.22989,-0.372 -8.98749,-0.38259 -19.86089,-0.0241 -7.05334,0.23257 -7.9775,0.31324 -8.29654,0.72433 -0.28466,0.36676 -0.32834,1.42168 -0.21087,5.0928 0.0815,2.54662 0.28271,10.5238 0.44717,17.72708 0.16446,7.20329 0.34763,13.35165 0.40703,13.66301 0.0594,0.31136 0.3174,0.6468 0.57332,0.74538 0.7,0.26967 27.13259,-0.42584 27.51895,-0.72411 0.24276,-0.1874 0.33073,-1.51522 0.33073,-4.99197 v -4.73665 l 0.67868,-0.25805 c 0.37328,-0.1419 2.8694,-0.25802 5.54694,-0.25802 4.54232,0 4.8866,0.0343 5.14215,0.51178 0.46393,0.86686 0.35381,11.96419 -0.13543,13.6471 -1.11437,3.83331 -4.51243,6.91275 -8.58651,7.7814 -0.91068,0.19418 -6.70248,0.40135 -15.47812,0.55367 -16.38179,0.28432 -17.40557,0.28284 -18.72035,-0.027 z m -51.67205,-8.13617 c -0.13824,-0.12176 -2.03729,-0.9755 -4.2201,-1.89722 -2.18282,-0.92171 -4.11758,-1.7892 -4.29948,-1.92771 -0.55554,-0.42304 -0.38609,-1.2723 0.76397,-3.82883 0.60646,-1.34814 1.03273,-2.52109 0.94726,-2.60655 -0.0855,-0.0855 -0.87478,0.28864 -1.75402,0.83135 -2.85446,1.76186 -6.14658,2.35821 -8.8869,1.60981 -1.41606,-0.38675 -13.34666,-5.47169 -17.72708,-7.55547 -3.08684,-1.46841 -5.09141,-3.34838 -6.36313,-5.96757 -0.71329,-1.46908 -0.77115,-1.81449 -0.77571,-4.63021 -0.005,-3.2907 0.0197,-3.37635 2.70975,-9.26042 0.43242,-0.94588 1.59731,-3.62479 2.58862,-5.95312 0.99132,-2.32834 2.13523,-4.72647 2.54204,-5.32916 2.42027,-3.58582 7.17849,-5.62393 11.40961,-4.88709 1.59604,0.27792 2.52985,0.62254 6.14507,2.26777 0.7276,0.33112 4.59132,2.00104 8.58605,3.71094 3.99472,1.70992 7.44753,3.20222 7.67291,3.31623 2.06294,1.04362 5.97682,2.65197 6.29896,2.58847 0.51389,-0.10131 0.52324,-0.11874 2.57805,-4.80546 2.00308,-4.56875 2.13912,-5.0069 1.6701,-5.37877 -0.19126,-0.15163 -3.20524,-1.49863 -6.69774,-2.99331 -3.4925,-1.49466 -7.00484,-3.01601 -7.80521,-3.38077 -1.29178,-0.5887 -12.81357,-5.57675 -16.27187,-7.04448 C 127.2031,403.41982 127,403.2711 127,402.72275 c 0,-0.67125 3.6634,-9.06214 4.19938,-9.61856 0.42523,-0.44143 0.51535,-0.4391 1.89386,0.0491 0.79606,0.28194 1.80457,0.69112 2.24114,0.90927 0.43656,0.21817 3.11546,1.40036 5.95312,2.6271 6.7129,2.90205 20.48283,8.88201 23.01875,9.99651 4.58703,2.01597 6.97484,4.89397 7.66522,9.2388 0.45889,2.88806 0.005,4.62632 -2.97393,11.38063 -1.37886,3.12674 -3.19258,7.29234 -4.03048,9.25687 -0.8379,1.96453 -1.80561,4.18933 -2.15046,4.94398 -0.34486,0.75467 -0.62702,1.43097 -0.62702,1.50291 0,0.0719 -0.34757,0.88323 -0.77239,1.80287 -0.42481,0.91966 -1.91282,4.3203 -3.30668,7.557 -4.09533,9.50979 -6.29319,14.4653 -6.57239,14.81876 -0.29698,0.37597 -1.28823,0.44108 -1.66489,0.10938 z m -4.42852,-15.45521 c 0.13929,-0.18191 1.03913,-2.1762 1.99963,-4.43178 0.96051,-2.25557 2.15944,-5.00538 2.66427,-6.11071 0.50484,-1.10535 0.83873,-2.13778 0.74198,-2.29433 -0.2296,-0.3715 -2.00977,-1.18626 -11.41517,-5.22459 -4.29287,-1.84322 -8.43314,-3.63792 -9.2006,-3.98825 -2.62615,-1.1988 -4.54178,-1.96128 -4.92742,-1.96128 -0.44316,0 -0.86868,0.86733 -3.87089,7.89009 -1.8525,4.33337 -2.1292,5.16477 -1.81666,5.45869 0.20278,0.19069 3.22619,1.56694 6.71869,3.05835 3.4925,1.49137 6.82625,2.93288 7.40834,3.20331 2.61581,1.21526 10.87752,4.71628 11.14625,4.72337 0.16408,0.004 0.41229,-0.14097 0.55158,-0.32287 z m 139.8324,12.43541 c -0.32856,-0.39788 -1.76826,-3.43217 -6.93605,-14.61823 -2.15133,-4.65666 -4.44529,-9.59776 -5.0977,-10.9802 -0.65244,-1.38245 -1.81086,-3.88277 -2.57432,-5.55625 -0.76343,-1.67349 -1.96879,-4.26289 -2.67856,-5.75419 -0.70977,-1.49132 -1.29048,-2.75905 -1.29048,-2.81718 0,-0.0581 -0.64037,-1.45732 -1.42306,-3.10935 -2.12729,-4.49011 -3.25005,-6.89851 -4.85396,-10.41199 -0.79716,-1.74625 -2.03267,-4.40661 -2.74556,-5.91193 -0.71289,-1.50529 -1.29617,-2.77389 -1.29617,-2.81911 0,-0.0452 -0.83344,-1.83123 -1.85208,-3.96896 -1.01865,-2.13773 -1.85208,-3.92671 -1.85208,-3.97552 0,-0.0488 -0.5447,-1.22331 -1.21043,-2.60999 -0.66574,-1.38668 -1.17175,-2.79394 -1.12448,-3.12724 0.0683,-0.48133 0.71194,-0.91567 3.12866,-2.11116 5.34221,-2.64269 6.53056,-3.11555 6.96341,-2.77098 0.30584,0.24347 4.41367,8.63721 4.41367,9.01869 0,0.0538 0.66627,1.5091 1.48063,3.23392 0.81434,1.72482 2.05243,4.38618 2.75127,5.91415 0.69887,1.52797 1.95107,4.20688 2.78265,5.95313 0.83159,1.74625 1.90193,4.06797 2.3785,5.15937 0.4766,1.09141 1.4899,3.29407 2.25176,4.89479 0.7619,1.60073 1.83907,3.89269 2.39374,5.09323 0.55467,1.20055 1.16504,2.18102 1.35634,2.17879 0.20687,-0.003 3.08173,-6.40831 7.09469,-15.80885 l 6.74688,-15.80483 1.85208,-0.92967 c 1.01865,-0.5113 2.92365,-1.42531 4.23333,-2.03112 1.30969,-0.60582 3.55698,-1.64598 4.99401,-2.31148 2.62708,-1.21666 3.20141,-1.38436 3.43678,-1.00349 0.11269,0.18233 -1.07862,3.24771 -2.28473,5.87888 -0.23347,0.50933 -0.74329,1.69995 -1.13294,2.64584 -0.38965,0.94588 -0.92364,2.19604 -1.18666,2.77812 -0.26299,0.58209 -0.85368,1.9513 -1.3126,3.04271 -0.45892,1.09141 -0.99091,2.34156 -1.18218,2.77813 -0.1913,0.43656 -0.72499,1.68671 -1.18602,2.77812 -0.46101,1.09141 -0.94496,2.2225 -1.0754,2.51354 -0.13047,0.29104 -0.55391,1.30307 -0.94097,2.24896 -0.38708,0.94589 -0.92061,2.19604 -1.18562,2.77812 -0.26503,0.58209 -0.80081,1.83224 -1.19063,2.77813 -0.38983,0.94588 -0.9227,2.19604 -1.18414,2.77812 -2.16924,4.82968 -2.71182,6.30722 -2.46171,6.70373 0.14798,0.23458 1.88341,0.90635 3.94618,1.52757 2.02512,0.60986 6.65861,2.02374 10.29663,3.14192 3.63802,1.11821 8.93631,2.74582 11.77396,3.61691 2.83766,0.87109 7.3025,2.24438 9.92188,3.05176 2.61937,0.80737 5.32886,1.62586 6.02109,1.81888 2.4655,0.68738 2.41441,1.14609 -0.2664,2.39289 -1.12779,0.52453 -4.23442,1.96093 -6.90359,3.19204 l -4.8531,2.23832 -1.4969,-0.40013 c -0.82333,-0.22008 -3.87819,-1.13181 -6.7886,-2.0261 -2.91042,-0.89427 -6.42276,-1.96792 -7.80521,-2.38588 -1.38245,-0.41794 -3.70417,-1.12657 -5.15938,-1.57472 -2.71369,-0.83571 -4.03741,-1.23883 -6.35,-1.93379 -0.7276,-0.21868 -2.92065,-0.88463 -4.87346,-1.47997 -3.99391,-1.21756 -3.99008,-1.21685 -3.99008,-0.72414 0,0.3166 1.83322,4.39907 4.88852,10.88655 0.5483,1.16416 1.70548,3.66448 2.57157,5.55625 0.86609,1.89177 1.82044,3.93612 2.12077,4.543 0.30035,0.6069 0.47976,1.27624 0.39872,1.48743 -0.081,0.21122 -0.66296,0.62894 -1.29315,0.92832 -8.52675,4.05061 -8.61608,4.08403 -9.15932,3.42614 z m 81.3031,0.0661 c -0.0899,-0.14552 -0.61283,-0.26459 -1.16197,-0.26459 -0.84106,0 -1.12808,-0.16134 -1.8211,-1.02372 -0.70339,-0.87527 -0.96515,-1.01915 -1.80478,-0.99219 -0.9643,0.031 -1.03645,-0.0397 -3.98409,-3.90263 -1.65111,-2.16382 -3.00202,-4.04574 -3.00202,-4.18211 0,-0.44979 1.69455,-1.8056 2.25674,-1.8056 0.39256,0 1.23264,0.89202 2.91759,3.09801 1.30146,1.70389 2.63847,3.48983 2.97116,3.96875 0.6535,0.94081 1.13506,1.0872 1.6269,0.49461 0.24101,-0.2904 0.23386,-0.50149 -0.0312,-0.92604 -0.27487,-0.44016 -0.27792,-0.65482 -0.0151,-1.07548 0.18052,-0.28908 0.32822,-0.66749 0.32822,-0.84092 0,-0.17346 -1.07157,-1.71442 -2.38125,-3.42437 -1.30969,-1.70998 -2.38125,-3.29004 -2.38125,-3.51123 0,-0.51258 1.60951,-1.75208 2.27509,-1.75208 0.33782,0 1.29443,1.05723 2.88544,3.18887 2.35223,3.15156 2.39078,3.18725 3.29399,3.05059 0.62209,-0.0941 1.06249,-0.004 1.37922,0.28279 0.51596,0.46693 1.27876,0.31281 1.27876,-0.25837 0,-0.35988 -1.14718,-1.97699 -4.29284,-6.05131 -0.86474,-1.12001 -1.53252,-2.23824 -1.48397,-2.48494 0.12528,-0.63669 1.9055,-2.01139 2.35762,-1.82057 0.60428,0.25503 6.20247,7.80111 6.14572,8.28413 -0.0284,0.24146 -0.12632,0.73917 -0.21768,1.10601 -0.12543,0.50366 0.0339,0.91863 0.65051,1.69458 0.78256,0.98472 0.79878,1.05481 0.38857,1.68084 -0.33425,0.51015 -0.36558,0.79037 -0.14301,1.27887 0.53329,1.17043 -0.41553,2.08311 -1.31726,1.26706 -0.30731,-0.27813 -0.74266,-0.38598 -1.2029,-0.29797 -0.41344,0.079 -0.9765,-0.0294 -1.31924,-0.25393 -0.72088,-0.47233 -1.38946,-0.29673 -2.21472,0.58174 -0.54549,0.58063 -0.57703,0.72925 -0.27461,1.29432 0.28681,0.53589 0.27599,0.73213 -0.0674,1.22235 -0.31433,0.44873 -0.34428,0.72612 -0.12936,1.19779 0.15381,0.33761 0.20823,0.80002 0.12089,1.02757 -0.17547,0.4573 -1.37247,0.56679 -1.63057,0.14917 z m -317.589827,-3.63599 -3.529407,-2.8408 0.163825,-1.02452 c 0.100914,-0.63106 0.04426,-1.16856 -0.147511,-1.39965 -0.233532,-0.28138 -0.236913,-0.53848 -0.01352,-1.02875 0.22126,-0.48562 0.220342,-0.82365 -0.0036,-1.31508 -0.401857,-0.88199 -0.190714,-1.25955 2.515373,-4.49792 1.998152,-2.3912 2.297758,-2.64665 3.113,-2.65425 0.496133,-0.005 1.160203,-0.15242 1.475713,-0.32845 0.315508,-0.176 0.926148,-0.24953 1.356974,-0.16335 0.452639,0.0905 0.859306,0.0337 0.963316,-0.1346 0.414841,-0.67122 1.390902,-0.14142 4.665774,2.53254 2.919984,2.38416 3.430807,2.90931 3.281453,3.37344 -0.09729,0.30231 -0.162246,0.78779 -0.144347,1.07884 0.143847,2.33889 0.218488,2.96949 0.399688,3.37679 0.25214,0.56679 -0.253021,1.25341 -0.92215,1.25341 -0.262059,0 -0.84786,-0.3125 -1.301784,-0.69445 -0.744487,-0.62645 -0.810474,-0.80134 -0.673796,-1.78594 l 0.151516,-1.09148 -2.75921,-2.18281 c -1.517565,-1.20055 -2.875788,-2.18282 -3.018274,-2.18282 -0.142483,0 -0.406603,0.17778 -0.586933,0.39505 -0.228804,0.2757 -0.618336,0.35132 -1.289169,0.25022 -0.918879,-0.13848 -1.016746,-0.0746 -2.218065,1.4478 -1.253586,1.58864 -1.504376,2.316 -0.979522,2.84086 0.193278,0.19328 0.176437,0.4985 -0.0556,1.00777 -0.314137,0.68945 -0.27301,0.7847 0.731475,1.69389 2.260203,2.04581 4.479317,3.7415 4.896406,3.7415 0.239622,0 0.583896,-0.1786 0.765053,-0.39688 0.476147,-0.57372 0.819042,-0.49472 1.785938,0.41151 0.935468,0.87678 1.088001,1.58334 0.455186,2.10854 -0.301781,0.25046 -0.563126,0.26369 -1.027573,0.0521 -0.480951,-0.21913 -0.753705,-0.19214 -1.197168,0.11848 -0.351533,0.24622 -0.829371,0.33825 -1.231858,0.23723 -0.403383,-0.10126 -0.8808,-0.009 -1.235117,0.2395 -0.317661,0.22251 -0.640371,0.40423 -0.717135,0.40383 -0.07676,0 -1.727798,-1.27907 -3.668974,-2.84152 z M 389.20209,446.09182 c -0.21828,-0.1387 -0.81505,-0.18571 -1.32612,-0.10449 -0.86453,0.13737 -1.03505,0.0368 -2.4474,-1.44396 -1.55704,-1.63237 -1.75855,-2.07841 -1.19404,-2.64292 0.25575,-0.25575 0.25178,-0.4399 -0.0188,-0.87315 -0.21857,-0.34997 -0.28133,-0.91335 -0.17314,-1.55374 0.1031,-0.61037 0.0586,-1.07339 -0.11351,-1.17975 -0.63101,-0.38997 -0.14391,-1.06506 2.90383,-4.02461 2.3382,-2.27055 3.16624,-3.24059 3.10885,-3.64193 -0.18544,-1.29691 -1.08802,-0.74348 -4.70477,2.8848 -3.60822,3.61974 -4.30421,4.05815 -5.03824,3.17368 -0.27345,-0.32949 -0.26948,-0.53179 0.0212,-1.07466 0.28252,-0.52792 0.29094,-0.776 0.0399,-1.178 -0.17491,-0.28009 -0.31802,-0.67607 -0.31802,-0.87996 0,-0.52906 7.34988,-7.57398 7.90186,-7.57398 0.25244,0 0.59862,0.13964 0.7693,0.31033 0.23736,0.23735 0.47104,0.23709 0.99406,0 0.43538,-0.19839 0.84646,-0.22397 1.13165,-0.0705 0.24636,0.13261 2.51032,2.39363 5.03103,5.02446 3.56018,3.71576 4.54737,4.89596 4.42301,5.2878 -0.20801,0.65538 -9.76574,9.82327 -10.23546,9.81795 -0.19698,-0.003 -0.53676,-0.11753 -0.75504,-0.2562 z m 2.99717,-6.86229 3.15378,-3.15375 -0.89268,-1.07479 c -0.49096,-0.59113 -1.07407,-1.07696 -1.29582,-1.07958 -0.58751,-0.007 -6.60829,5.769 -6.60829,6.33957 0,0.50901 1.65706,2.12233 2.17988,2.12233 0.17015,0 1.72857,-1.4192 3.46313,-3.15378 z m -364.20275,2.96299 c -1.937403,-2.0008 -4.209806,-4.35049 -5.049784,-5.22155 -1.068219,-1.10773 -1.469061,-1.70532 -1.333686,-1.98829 0.106449,-0.22252 0.175499,-0.89107 0.153443,-1.48569 -0.03702,-0.99814 0.08986,-1.20991 1.653334,-2.7595 1.597788,-1.58358 1.732542,-1.66058 2.385803,-1.36292 0.380802,0.17351 0.828103,0.23156 0.994002,0.12904 0.165899,-0.10253 1.168128,-0.21156 2.227173,-0.24228 l 1.925539,-0.0559 3.032435,3.16519 c 2.712506,2.83128 3.08955,3.13462 3.57383,2.87544 0.29777,-0.15936 0.541401,-0.4381 0.541401,-0.61945 0,-0.18134 -0.723659,-1.04034 -1.608132,-1.90891 -3.662611,-3.59675 -5.846572,-6.17567 -5.678453,-6.70536 0.213101,-0.67144 0.842021,-0.8962 1.508924,-0.5393 0.390983,0.20926 0.745948,0.19801 1.325348,-0.042 0.789863,-0.32716 0.798227,-0.32092 4.476896,3.35071 2.027055,2.02319 3.753577,3.89284 3.83672,4.15478 0.08314,0.26196 0.0088,0.64785 -0.165267,0.85756 -0.19449,0.23434 -0.250785,0.73123 -0.146081,1.28934 0.167412,0.89236 0.08763,0.98947 -4.622806,5.62528 -2.636237,2.59451 -4.954018,4.80822 -5.150622,4.91943 -0.247423,0.13994 -1.441866,-0.91771 -3.880017,-3.43567 z m 5.024284,-2.47793 c 0.610751,-0.44915 1.110456,-1.00105 1.110456,-1.22642 0,-0.44998 -5.350811,-6.14423 -6.13973,-6.53381 -0.38468,-0.18994 -0.689914,-0.0497 -1.408999,0.64723 -0.504865,0.48932 -0.917937,1.05685 -0.917937,1.26116 0,0.33972 5.762196,6.62789 6.099439,6.6562 0.08047,0.007 0.64602,-0.3552 1.256771,-0.80436 z M 414.60084,424.12582 c -0.41211,-0.41212 -0.46675,-0.65437 -0.26643,-1.18123 0.22151,-0.58262 0.122,-0.78306 -0.82259,-1.65704 -0.93107,-0.86145 -1.05619,-1.10781 -0.93665,-1.8443 0.11792,-0.72668 0,-0.97002 -0.80383,-1.6769 -0.62379,-0.54769 -1.1089,-0.77481 -1.43677,-0.67268 -0.27223,0.0848 -0.70766,0.22098 -0.96756,0.30258 -0.29392,0.0923 -0.8578,-0.15777 -1.49158,-0.66146 -1.05847,-0.84116 -1.59317,-0.99687 -1.8723,-0.54523 -0.29684,0.48033 -1.10323,0.2762 -2.12884,-0.53885 -0.63145,-0.50181 -1.16657,-0.73734 -1.42544,-0.62743 -1.11332,0.47273 -1.55898,0.39685 -2.49473,-0.42474 -1.14155,-1.00229 -1.18369,-1.37625 -0.28752,-2.55119 0.8423,-1.10429 1.42729,-1.11371 2.64728,-0.0425 0.81328,0.71408 1.03572,0.79465 1.46082,0.52916 0.76552,-0.47807 1.18078,-0.38769 2.51161,0.54674 l 1.22468,0.85989 0.76742,-0.91604 c 0.93067,-1.11093 0.9669,-1.67052 0.14309,-2.2103 -1.25047,-0.81933 -1.51524,-1.245 -1.34358,-2.15992 0.14663,-0.78174 0.0547,-0.95563 -0.91895,-1.73808 -0.59502,-0.47818 -1.08188,-0.99192 -1.08188,-1.14165 0,-0.14973 0.31385,-0.72512 0.69744,-1.27862 0.8777,-1.26654 1.51199,-1.28321 2.82826,-0.0743 0.88879,0.81632 0.99013,1.02992 0.83132,1.75287 -0.1615,0.7353 -0.0625,0.92562 0.92686,1.78115 1.0163,0.87881 1.08485,1.01743 0.8309,1.68007 -0.24664,0.64366 -0.18415,0.80902 0.57454,1.52012 0.46821,0.43886 0.92787,0.79845 1.02143,0.79914 0.35118,0.003 0.47892,0.85294 0.205,1.36475 -0.24366,0.45529 -0.12526,0.67839 0.82632,1.55686 1.00584,0.92858 1.09458,1.11133 0.94001,1.9353 -0.15642,0.83383 -0.0796,0.98205 0.91916,1.77307 0.93192,0.73811 1.06826,0.97108 0.94094,1.60777 -0.091,0.45498 0.0204,1.03944 0.28615,1.50268 0.42074,0.73308 0.41129,0.78922 -0.28655,1.70415 -0.92159,1.20827 -1.3734,1.37086 -2.01803,0.72623 z m -56.88843,-2.78971 c -0.50699,-0.52772 -2.26124,-2.15766 -3.89834,-3.6221 -1.63711,-1.46441 -2.97657,-2.86816 -2.97657,-3.11946 0,-0.25128 0.19799,-0.62026 0.44,-0.82 0.40892,-0.33745 5.42203,-5.79977 13.31834,-14.51171 1.81901,-2.00689 5.06346,-5.57794 7.20989,-7.93564 2.14643,-2.3577 3.90261,-4.44262 3.90261,-4.63312 0,-0.1905 -0.98227,-1.22066 -2.18282,-2.28926 -1.20054,-1.06857 -3.2976,-2.98619 -4.66013,-4.26135 -1.36252,-1.27516 -2.62199,-2.31849 -2.79879,-2.31849 -0.29681,0 -3.14529,3.03591 -9.78918,10.43332 -1.44646,1.61046 -4.22522,4.62253 -6.17509,6.69345 -2.9768,3.16164 -3.82683,3.90395 -5.30204,4.63021 -1.70111,0.83746 -1.86219,0.8649 -5.07529,0.8649 -3.19852,0 -3.38037,-0.0306 -5.03264,-0.84572 -2.87734,-1.41951 -13.42609,-11.28016 -14.77526,-13.81143 -1.77564,-3.33148 -1.60448,-8.00836 0.41043,-11.21376 0.60573,-0.96361 2.90295,-3.58558 8.26613,-9.43467 7.35878,-8.02547 8.93043,-9.74352 12.3589,-13.51005 4.5229,-4.96885 4.70633,-5.13979 5.20711,-4.85243 1.06487,0.61103 7.85283,7.11793 7.85283,7.52766 0,0.25808 -1.27992,1.86349 -2.84427,3.56756 -1.56435,1.70408 -4.21349,4.61412 -5.88698,6.46676 -3.82667,4.23638 -9.8593,10.84689 -12.36927,13.55418 -1.05502,1.13798 -1.91823,2.27579 -1.91823,2.52852 0,0.25273 0.74414,1.17851 1.65365,2.05729 3.01339,2.91164 6.73772,6.19213 7.02992,6.19213 0.15833,0 1.99002,-1.88018 4.07038,-4.1782 14.57024,-16.09447 15.00246,-16.54336 16.75416,-17.4004 3.55227,-1.73794 6.6235,-1.87462 10.0471,-0.44704 1.84187,0.76801 3.42395,2.09807 11.85328,9.96524 2.96804,2.77006 3.50271,3.40207 4.3256,5.11294 1.55815,3.23951 1.49042,7.12923 -0.18116,10.4058 -0.30242,0.59283 -1.52533,2.15321 -2.71754,3.46752 -1.19224,1.31432 -3.12018,3.4394 -4.28435,4.72242 -1.16416,1.28304 -4.25979,4.67931 -6.87916,7.54729 -2.61938,2.868 -6.60993,7.25297 -8.86788,9.74437 -2.26124,2.49507 -4.34303,4.56419 -4.63447,4.60629 -0.32869,0.0475 -0.87823,-0.28697 -1.45087,-0.88302 z M 67.779128,421.00982 c -0.38899,-0.40478 -1.999377,-2.19353 -3.57864,-3.97499 -2.356197,-2.65785 -2.840681,-3.34471 -2.700248,-3.82807 0.09413,-0.32399 1.604563,-1.83923 3.356525,-3.3672 6.011384,-5.24279 16.880793,-14.79465 17.957819,-15.78099 0.363802,-0.33319 1.933056,-1.71103 3.48723,-3.06186 8.977878,-7.80336 11.317951,-9.91151 11.466226,-10.32984 0.190014,-0.53607 0.838018,0.24691 -8.603456,-10.39532 -3.856302,-4.34673 -7.910957,-8.91966 -9.010346,-10.16204 -1.099388,-1.2424 -2.20201,-2.29803 -2.450272,-2.34584 -0.248261,-0.0478 -1.015637,0.41365 -1.705279,1.02544 -0.689642,0.6118 -2.623113,2.30979 -4.296603,3.7733 -1.67349,1.46352 -3.701076,3.26388 -4.505746,4.00082 -0.804672,0.73694 -2.947797,2.64835 -4.7625,4.24759 -1.814706,1.59925 -3.599161,3.2066 -3.965458,3.57188 -0.366298,0.36528 -3.039267,2.74775 -5.939928,5.29436 -2.900662,2.54662 -6.649088,5.8501 -8.329838,7.34108 -1.748808,1.55136 -3.287133,2.71134 -3.596499,2.71198 -0.365475,0 -1.633194,-1.24381 -3.913445,-3.84196 -1.855067,-2.11368 -3.434799,-4.0045 -3.510512,-4.2018 -0.126746,-0.3303 3.262889,-3.53205 9.552051,-9.02263 1.164166,-1.01635 3.128698,-2.74889 4.365625,-3.85014 2.689955,-2.39487 10.378583,-9.15807 15.623236,-13.74277 3.316607,-2.89928 9.025958,-7.94084 19.169472,-16.92736 1.600729,-1.41814 4.339167,-3.84418 6.085417,-5.39123 1.74625,-1.54701 3.355189,-2.81368 3.57542,-2.81479 0.608651,-0.003 7.669488,7.18468 7.668737,7.80658 -5.29e-4,0.35015 -1.656202,1.98393 -4.957249,4.89138 -2.726138,2.40109 -5.672649,5.02134 -6.547803,5.82274 -0.875154,0.80142 -2.632985,2.3405 -3.906292,3.42021 -1.273308,1.07969 -2.315166,2.09085 -2.31524,2.24703 -9e-5,0.18807 1.191914,0.28398 3.528973,0.28398 3.46764,0 3.559506,0.0153 5.274556,0.87651 2.074379,1.04169 2.466631,1.45187 14.957649,15.64124 1.35415,1.53826 2.76347,3.30118 3.13183,3.9176 1.98648,3.32428 1.88159,8.14123 -0.25674,11.79002 -0.629,1.07331 -3.70024,4.0191 -9.1592,8.78504 -0.833403,0.72761 -3.469542,3.06483 -5.858086,5.19385 -2.388542,2.12902 -8.093274,7.17974 -12.67718,11.22379 -4.583906,4.04405 -8.952325,7.92784 -9.7076,8.63062 -0.755274,0.70279 -1.568103,1.27778 -1.806289,1.27778 -0.238186,0 -0.751329,-0.3312 -1.140317,-0.73599 z M 8.0747323,420.43001 c -0.400667,-0.57814 -0.6623772,-1.22346 -0.5815783,-1.43401 0.080799,-0.21056 1.8909946,-1.71784 4.022658,-3.34952 3.80702,-2.91404 3.872908,-2.9818 3.715479,-3.82098 -0.111863,-0.59629 -0.03886,-0.95509 0.241719,-1.18795 0.624411,-0.51822 0.489042,-1.00989 -0.682747,-2.47989 -0.979029,-1.2282 -1.191745,-1.36364 -2.182813,-1.38978 -0.603941,-0.0159 -1.34098,-0.11258 -1.637864,-0.21476 -0.424134,-0.146 -1.3697734,0.44617 -4.4135348,2.76384 -2.242249,1.70738 -4.0643939,2.91216 -4.3264104,2.86062 -0.6369147,-0.12531 -2.01564312,-1.9045 -1.82758875,-2.35842 0.0857808,-0.20706 1.13173935,-1.10926 2.32435245,-2.00493 1.1926129,-0.89564 5.5616685,-4.19849 9.7090125,-7.33965 4.147344,-3.14118 7.7384,-5.71235 7.980126,-5.71375 0.623234,-0.003 1.852478,1.54741 1.756932,2.21678 -0.05184,0.36317 -1.369462,1.53607 -3.763306,3.34997 -2.025946,1.53511 -3.809208,2.99035 -3.962803,3.23387 -0.418286,0.6631 0.171871,1.16049 0.958436,0.80772 0.861178,-0.38621 1.095039,-0.23947 2.52908,1.58676 2.240549,2.85329 2.321629,3.01789 1.78109,3.61516 -0.321771,0.35555 -0.409477,0.72541 -0.287383,1.21187 0.112019,0.44633 0.02879,0.92438 -0.229583,1.31871 -0.249344,0.38055 -0.347102,0.90961 -0.254047,1.37488 0.143892,0.71946 -0.08094,0.93279 -4.616349,4.3805 -2.622184,1.99329 -4.9378837,3.62418 -5.1459999,3.62418 -0.208116,0 -0.7062111,-0.47305 -1.1068778,-1.05122 z M 190.10313,385.23345 c -4.80012,-0.87816 -7.33349,-1.69744 -11.38484,-3.68176 -3.38789,-1.65936 -3.65851,-1.92487 -4.06825,-3.99129 -0.12985,-0.65485 -0.4344,-2.18922 -0.6768,-3.40971 -0.33982,-1.71101 -0.37344,-2.38152 -0.14687,-2.92852 0.41667,-1.00592 27.29022,-27.78429 27.9294,-27.83046 0.285,-0.0206 3.55428,-0.008 7.26506,0.0268 14.7119,0.14007 24.89806,-1.32249 33.45119,-4.803 10.20409,-4.15235 19.50897,-9.67127 27.4913,-16.30567 13.69968,-11.38629 23.9019,-27.37868 29.4839,-46.21715 1.6927,-5.71256 2.05726,-7.56414 2.57873,-13.09687 0.49184,-5.21834 0.49099,-8.45901 -0.004,-14.55812 -0.60159,-7.41553 -1.72564,-14.14961 -3.35545,-20.10229 -0.29882,-1.09141 -0.63786,-2.34157 -0.75343,-2.77813 -0.55385,-2.09247 -1.97387,-6.22017 -3.0676,-8.91683 -1.7676,-4.35813 -1.73929,-4.18628 -1.11752,-6.7855 0.41497,-1.73481 0.51369,-2.79744 0.40756,-4.38702 l -0.14004,-2.09767 1.47235,-1.87108 c 1.84237,-2.34127 2.99405,-4.82879 3.9443,-8.51928 0.87927,-3.41482 0.98034,-6.94251 0.2717,-9.48081 -0.24214,-0.86732 -0.44026,-1.69549 -0.44026,-1.84038 0,-0.45797 13.59154,-13.91288 14.05416,-13.91288 0.48612,0 1.82084,2.97785 1.82084,4.0624 0,2.211 -3.99696,9.56853 -7.44323,13.7014 -0.80296,0.96294 -1.02257,1.44742 -1.01936,2.24895 0.01,2.42776 1.92743,8.07905 4.16269,12.26641 2.53878,4.75599 9.29785,15.17651 10.02493,15.45551 0.26752,0.10267 1.79752,0.2988 3.39997,0.43586 12.95882,1.10841 14.64535,1.74956 17.01366,6.46791 1.88463,3.75472 3.24615,8.17195 3.88358,12.59968 0.49925,3.46784 0.50525,5.40214 0.0238,7.67363 -1.01526,4.78992 -2.82253,6.36615 -13.02335,11.35856 -3.22511,1.57839 -5.93196,2.98008 -6.01528,3.11487 -0.0833,0.13478 -0.38743,1.89645 -0.67588,3.91483 -0.28842,2.01838 -0.75866,4.8604 -1.04497,6.31561 -1.43814,7.30988 -2.02155,11.33855 -2.29319,15.83557 l -0.18939,3.13558 5.13082,5.09177 c 2.82197,2.80051 5.81547,5.5902 6.65221,6.19935 1.52093,1.10723 1.52135,1.10794 1.52135,2.50777 0,1.93829 -0.72686,5.98294 -1.50341,8.36568 -1.32085,4.05288 -3.42413,7.55229 -8.35303,13.89761 l -2.46626,3.175 -3.69438,-0.01 c -4.27569,-0.0111 -6.70472,-0.4101 -9.11833,-1.49823 -1.82981,-0.82489 -2.21422,-0.83595 -5.55625,-0.15991 -1.75437,0.35488 -4.78126,1.69098 -6.52852,2.88176 -2.0937,1.4269 -4.70368,4.08403 -8.55313,8.70775 -3.50369,4.20839 -5.32918,6.11622 -7.01106,7.32727 l -0.79375,0.57155 0.0265,2.86361 c 0.0338,3.67157 0.48731,6.33802 1.49291,8.77795 0.71146,1.72628 0.78481,2.14881 0.65072,3.74822 -0.5546,6.6154 -6.44348,12.81729 -15.13457,15.93903 -2.66533,0.95737 -6.93213,1.78279 -9.21561,1.78279 h -1.9701 l -3.54664,-4.0349 c -4.04318,-4.5998 -7.15798,-7.26868 -9.50951,-8.14808 -1.48631,-0.55584 -1.86739,-0.5838 -6.00281,-0.44029 -6.93931,0.24077 -14.50468,1.44372 -19.89387,3.16322 -3.33858,1.06524 -4.18151,1.51699 -5.50038,2.94778 -2.14916,2.33156 -3.45827,4.76131 -6.00341,11.14248 -0.6965,1.74625 -1.41988,3.34004 -1.60751,3.54179 -1.01933,1.09588 -10.50678,1.44203 -15.33141,0.55938 z m -39.42292,-8.38774 c -0.58208,-0.23257 -1.65365,-0.87665 -2.38125,-1.43127 -0.7276,-0.55462 -14.26483,-13.96108 -30.08271,-29.79216 -31.974965,-32.00159 -30.102377,-29.91363 -30.107414,-33.57015 -0.0051,-3.70059 -4.297368,0.85691 54.823834,-58.21161 43.94991,-43.91075 53.48704,-53.3159 54.57879,-53.82349 0.99453,-0.46239 1.78265,-0.61349 3.175,-0.60869 3.17512,0.0109 3.66829,0.35224 10.85491,7.51231 4.01134,3.99653 6.55034,6.33351 6.881,6.33351 0.33374,0 3.11729,-2.60394 7.66593,-7.17127 3.92805,-3.9442 7.73722,-7.56591 8.46483,-8.04825 0.7276,-0.48235 2.98507,-2.55043 5.0166,-4.59575 l 3.69368,-3.71875 -0.32024,-0.88563 c -0.46864,-1.296 -0.38459,-3.59125 0.17676,-4.82705 0.26697,-0.58772 1.0456,-1.56169 1.7303,-2.16439 1.61512,-1.42169 3.1409,-1.78313 5.68529,-1.34682 1.80863,0.31015 1.82122,0.3081 2.70693,-0.43949 1.53211,-1.29321 2.79328,-1.71588 5.12318,-1.717 2.15642,-0.001 2.64029,0.16579 5.38309,1.85594 0.57286,0.35301 0.65425,0.3327 1.05832,-0.26404 1.56414,-2.30989 3.93467,-4.45317 6.20816,-5.61302 1.52188,-0.7764 4.81888,-1.54573 6.62429,-1.54573 2.2501,0 4.73178,0.67414 7.12555,1.93563 l 2.05777,1.08441 19.77795,-19.76627 c 19.45907,-19.44757 19.79467,-19.76627 20.81424,-19.76627 1.47378,0 2.52042,1.03373 2.52042,2.48935 0,1.06089 -0.12184,1.18935 -19.86828,20.94732 l -19.8683,19.87988 0.58634,1.14931 c 2.30439,4.51698 2.34381,9.14494 0.11647,13.67018 -0.99954,2.03074 -3.61781,4.96765 -5.1222,5.74561 -0.95859,0.49569 -1.05955,1.18848 -0.32406,2.22334 1.66497,2.34266 1.36594,6.51335 -0.64762,9.03191 -0.7425,0.92875 -0.90977,1.33031 -0.77139,1.85208 0.0971,0.36643 0.23709,1.24323 0.31093,1.94847 0.47943,4.57819 -3.80293,7.86509 -8.43785,6.47643 l -1.03841,-0.31111 -3.15942,3.15117 c -2.10301,2.09754 -3.25985,3.46221 -3.45985,4.08142 -0.72845,2.25529 -1.60282,3.30122 -8.85918,10.59756 -4.13009,4.15286 -7.50926,7.65751 -7.50926,7.78812 0,0.13062 2.90964,3.16247 6.46587,6.73745 7.27071,7.30905 7.54183,7.69646 7.55122,10.79073 0.0114,3.71703 4.53724,-1.08648 -54.93337,58.30253 -52.93469,52.86205 -53.69258,53.60471 -55.15073,54.04114 -1.83422,0.54898 -3.75013,0.54615 -5.13612,-0.008 z m 48.88149,-65.89387 c 25.2844,-25.28409 45.97164,-46.14767 45.97164,-46.36349 0,-0.51519 -5.03219,-5.56128 -5.54595,-5.56128 -0.21808,0 -9.9239,9.51079 -21.56851,21.13507 -20.13768,20.10254 -21.24681,21.16246 -22.70328,21.69584 -1.85313,0.67863 -3.83537,0.71826 -5.61247,0.11223 -1.18666,-0.40468 -2.58439,-1.70611 -13.56987,-12.63515 -13.68057,-13.61027 -13.54993,-13.44853 -13.54993,-16.77593 0,-3.48554 -1.1399,-2.17469 22.23954,-25.57439 11.63367,-11.64376 21.15213,-21.34948 21.15213,-21.56827 0,-0.2188 -1.23485,-1.62846 -2.7441,-3.13258 -2.35559,-2.34756 -2.81448,-2.69567 -3.24115,-2.45866 -0.27337,0.15186 -21.07719,20.86359 -46.23071,46.02605 -31.51054,31.52175 -45.70474,45.89198 -45.64063,46.20665 0.10466,0.51369 44.39481,44.85817 44.80735,44.86232 0.14536,0.003 20.95153,-20.68433 46.23594,-45.96841 z m 11.1155,-46.30708 c 9.5665,-9.57057 17.39364,-17.51679 17.39364,-17.65825 0,-0.34312 -9.31216,-9.65527 -9.65529,-9.65527 -0.14744,0 -8.17695,7.90954 -17.84335,17.57675 -15.99289,15.99424 -17.54122,17.61791 -17.19717,18.03381 1.35316,1.63571 9.12944,9.10402 9.47945,9.10402 0.236,0 8.25622,-7.83048 17.82272,-17.40106 z m 33.19894,-33.19683 c 1.93011,-1.92612 3.50928,-3.68105 3.50928,-3.89984 0,-0.51868 -9.00063,-9.53143 -9.51862,-9.53143 -0.51855,0 -7.41471,6.88424 -7.41471,7.40189 0,0.51869 9.00063,9.53144 9.51861,9.53144 0.21789,0 1.97534,-1.57593 3.90544,-3.50206 z m 18.78542,-21.16666 c 1.93011,-1.92613 3.50928,-3.68384 3.50928,-3.90603 0,-0.50031 -7.51158,-8.03974 -7.87464,-7.90384 -0.36377,0.13617 -7.02075,6.55546 -7.30376,7.04298 -0.17358,0.29902 0.72737,1.35363 3.70086,4.33209 2.16166,2.16527 4.04925,3.93685 4.19464,3.93685 0.14539,0 1.84352,-1.57592 3.77362,-3.50205 z M 89.980043,290.61721 c -3.78827,-1.30313 -8.414626,-3.69255 -8.875683,-4.58415 -0.197586,-0.38208 -0.538732,-1.34622 -0.758103,-2.14254 -0.219371,-0.79629 -0.811406,-2.93611 -1.315635,-4.75512 -1.73736,-6.26755 -1.89062,-7.21833 -1.897857,-11.77395 l -0.0067,-4.23334 0.924753,-1.71979 c 1.792687,-3.33392 4.187807,-5.10502 10.907903,-8.066 5.846667,-2.57613 6.16394,-2.73134 6.613287,-3.23533 0.414507,-0.46492 0.763492,-1.84556 2.326463,-9.20388 1.524587,-7.17762 2.643219,-15.0855 2.643219,-18.68559 v -1.37824 l -2.152547,-2.00663 c -2.391928,-2.22978 -8.448003,-8.63732 -10.544066,-11.156 -1.184095,-1.42283 -1.333469,-1.73241 -1.185514,-2.45699 0.936419,-4.58598 2.287606,-8.1757 4.571027,-12.14392 1.274638,-2.21512 6.865043,-10.41065 7.608615,-11.15422 0.931637,-0.93164 5.879415,-0.76863 10.962895,0.36118 4.59435,1.02109 6.09463,1.31289 7.66193,1.49021 l 1.55353,0.17576 1.27925,-1.17805 c 0.70359,-0.64793 3.06519,-2.65205 5.248,-4.4536 5.456,-4.50302 6.11978,-5.14834 9.7089,-9.43883 1.73106,-2.06934 3.69198,-4.20869 4.3576,-4.75411 l 1.21022,-0.99168 -0.13427,-1.59589 c -0.0738,-0.87774 -0.74822,-4.03667 -1.4986,-7.01985 -1.49233,-5.93286 -1.84867,-8.72699 -1.34784,-10.5686 0.9654,-3.5499 10.02713,-9.42757 19.3217,-12.53254 2.58814,-0.8646 6.04689,-1.57215 6.78261,-1.38749 0.32003,0.0803 1.88827,1.6643 3.48497,3.51994 5.24761,6.09866 8.69224,8.98012 11.43957,9.56932 2.81679,0.60409 16.65404,-1.10043 24.34694,-2.99914 5.41046,-1.33537 7.0777,-3.20115 11.51251,-12.88341 1.09227,-2.38468 2.18951,-4.54082 2.43832,-4.79142 0.24881,-0.25059 1.4644,-0.71848 2.70133,-1.03975 2.65771,-0.69029 7.87776,-0.80979 11.1125,-0.2544 6.284,1.07895 14.30835,4.15538 15.46548,5.92927 0.2321,0.35581 0.49056,1.92343 0.66323,4.0226 0.15561,1.89177 0.4108,4.33255 0.56709,5.42395 0.4025,2.81073 1.96817,7.69045 2.86451,8.92781 1.61987,2.23617 4.09352,3.73628 9.94073,6.02842 1.74625,0.68454 5.27331,2.24434 7.83789,3.46622 7.44265,3.54601 9.74283,3.74215 14.93798,1.27376 1.33201,-0.63288 3.39561,-1.93003 4.6302,-2.91051 3.90134,-3.09827 5.46005,-3.42446 8.85918,-1.85396 1.08188,0.49986 1.96705,1.06851 1.96705,1.26368 0,0.46258 -13.27574,13.7025 -13.73958,13.7025 -0.19484,0 -0.78478,-0.11516 -1.31098,-0.2559 -4.94776,-1.32339 -6.52725,-1.35862 -11.0871,-0.24732 -3.75621,0.91545 -6.14479,1.99482 -8.74239,3.95058 -1.08649,0.81804 -1.91491,1.26115 -2.19287,1.17293 -1.06682,-0.3386 -3.51663,-0.61896 -4.28823,-0.49077 -1.42852,0.23734 -4.22517,0.9405 -5.38229,1.35326 -1.22759,0.4379 -2.02524,0.27575 -4.32452,-0.87911 -3.22992,-1.62229 -9.95364,-4.19975 -13.35809,-5.12066 -0.43656,-0.1181 -1.69005,-0.46031 -2.78554,-0.76047 -7.3318,-2.00893 -14.64798,-2.85192 -22.61446,-2.60571 -6.66858,0.2061 -11.68957,1.10551 -20.10833,3.60202 -14.61259,4.33323 -26.76311,10.46776 -37.17396,18.7683 -3.40171,2.71218 -10.01801,9.34131 -12.67519,12.69979 -3.98784,5.04032 -6.99351,9.86683 -9.9439,15.96795 -3.27911,6.78088 -4.62433,11.47077 -7.26861,25.34094 -0.45775,2.40109 -0.94789,4.87643 -1.0892,5.50075 -1.36347,6.02421 -1.35583,10.45751 0.0308,17.86755 0.15852,0.84709 0.21688,1.86493 0.1297,2.26185 -0.10879,0.49533 -4.28621,4.84633 -13.31837,13.87179 -11.494656,11.48615 -13.259535,13.1498 -13.947449,13.14741 -0.433165,-0.003 -2.02796,-0.42939 -3.543988,-0.95088 z M 80.565626,151.18363 c -2.687061,-0.66771 -4.354725,-1.95845 -8.324581,-6.44308 -3.861419,-4.36213 -6.221251,-7.00839 -15.223336,-17.07109 -3.4925,-3.90398 -7.481094,-8.36975 -8.863542,-9.92393 -1.382448,-1.55419 -4.418542,-4.94989 -6.746875,-7.546 -2.328333,-2.59612 -5.364427,-5.99684 -6.746875,-7.55716 -1.382448,-1.56032 -3.750077,-4.223698 -5.261398,-5.918616 -2.265895,-2.541162 -2.706759,-3.170637 -2.513542,-3.588899 0.210688,-0.45608 7.580614,-7.240351 8.904883,-8.197251 0.509397,-0.368086 0.653986,-0.269291 2.516939,1.719791 1.785784,1.906686 6.904641,7.628607 10.610257,11.860273 2.992864,3.417732 7.545729,8.373992 7.692422,8.373992 0.08428,0 0.156355,-1.39898 0.160181,-3.10885 0.0062,-2.75198 0.08672,-3.29805 0.701776,-4.756957 0.934881,-2.217517 2.606336,-4.544366 4.264329,-5.936413 0.751197,-0.630706 4.284292,-3.766111 7.851323,-6.967569 8.865642,-7.957037 9.985018,-8.911428 11.507205,-9.811186 2.433162,-1.438228 3.954309,-1.832023 7.011459,-1.815121 2.524387,0.01397 2.937433,0.08925 4.522369,0.824396 1.954771,0.90669 2.766669,1.652609 7.149571,6.568578 1.686639,1.89177 4.245049,4.754165 5.685359,6.360876 1.44031,1.606712 4.46421,4.990002 6.71978,7.518418 2.25558,2.52842 5.50223,6.154928 7.21478,8.058918 1.85714,2.06473 3.38864,4.03676 3.79494,4.88653 1.52632,3.19228 1.43653,6.90534 -0.25164,10.40575 -1.38624,2.87437 -1.92246,3.42379 -12.21059,12.51117 -1.48273,1.30969 -4.82333,4.28625 -7.42355,6.61458 -12.541107,11.2298 -12.590807,11.26993 -15.258249,12.31932 -1.37827,0.54222 -6.191083,0.94066 -7.483395,0.61953 z m 10.867308,-18.09822 c 3.174772,-2.83766 7.624336,-6.81289 9.887916,-8.83386 8.94018,-7.98195 9.79096,-8.77297 9.79744,-9.10916 0.004,-0.19153 -2.34477,-2.97292 -5.21881,-6.18086 -2.87404,-3.20794 -5.82083,-6.51398 -6.548438,-7.34674 -0.727604,-0.83276 -3.227916,-3.633477 -5.55625,-6.223806 -2.328333,-2.590329 -4.877749,-5.437902 -5.665372,-6.327942 -0.787622,-0.890039 -1.636011,-1.618255 -1.885315,-1.618255 -0.249301,0 -2.989664,2.262188 -6.0897,5.027083 -3.100033,2.764896 -6.842932,6.098646 -8.317553,7.408333 -8.788262,7.805317 -11.776435,10.537397 -11.776435,10.767157 0,0.27418 1.288151,1.76456 8.069792,9.33669 4.354319,4.86187 6.692868,7.49117 12.139311,13.64858 3.958981,4.47578 4.588917,5.07811 5.038029,4.81724 0.194188,-0.1128 2.950612,-2.5268 6.125385,-5.36446 z M 303.03573,119.82114 c -5.18998,-4.00599 -6.70239,-5.29675 -6.70239,-5.72015 0,-0.22195 0.63645,-1.19071 1.41435,-2.15279 0.77788,-0.96209 4.67257,-5.91643 8.65487,-11.00966 3.98227,-5.093232 10.26993,-13.122201 13.97256,-17.842153 3.70264,-4.719955 7.16005,-9.136795 7.68316,-9.8152 4.33493,-5.621935 5.39668,-6.870774 5.84134,-6.870774 0.26945,0 1.26132,0.625078 2.20416,1.389063 0.94282,0.763984 3.03202,2.401093 4.64265,3.63802 1.61062,1.236928 3.00162,2.461766 3.09112,2.721862 0.11415,0.331771 -0.39626,1.18057 -1.71034,2.84418 -1.03016,1.304206 -1.87304,2.490386 -1.87304,2.635954 0,0.339151 0.68728,0.340267 1.31908,0.0021 0.2698,-0.144389 1.3131,-0.379188 2.31846,-0.521774 3.0593,-0.433888 6.26894,0.276566 8.93017,1.976696 1.29886,0.829781 10.11761,7.612523 12.68256,9.754486 3.62807,3.029789 5.62978,7.93066 4.91519,12.03412 -0.49982,2.87017 -0.9289,3.55356 -7.0422,11.21639 -0.66754,0.83675 -1.41063,1.51328 -1.65132,1.50342 -0.57896,-0.0237 -9.93902,-7.43805 -10.03784,-7.95123 -0.0422,-0.21918 1.17785,-1.97966 2.71124,-3.91219 1.53339,-1.93252 2.78799,-3.73244 2.78799,-3.999814 0,-0.46213 -1.50399,-1.683793 -15.70897,-12.759973 -2.19289,-1.70987 -4.11708,-3.108854 -4.27599,-3.108854 -0.46799,0 -1.09251,0.76994 -13.09168,16.139581 -15.07744,19.31263 -14.75058,18.89567 -16.21166,20.67914 -0.69652,0.85022 -1.37136,1.54586 -1.49966,1.54586 -0.1283,0 -1.642,-1.08736 -3.36381,-2.41636 z M 149.62871,107.16731 c -0.14832,-0.24 -2.03909,-5.10801 -6.27301,-16.150648 -3.92788,-10.244457 -5.74822,-14.970243 -10.3954,-26.987498 -2.2791,-5.893594 -4.96216,-12.85875 -5.96234,-15.478125 -1.00019,-2.619375 -2.90668,-7.560468 -4.23666,-10.980208 -3.0955,-7.959378 -3.25043,-8.40365 -3.08284,-8.840379 0.0769,-0.200324 1.30918,-0.810281 2.73847,-1.355463 1.42928,-0.545179 3.9136,-1.510237 5.52071,-2.144572 1.6071,-0.634334 3.1317,-1.153335 3.38799,-1.153335 0.55946,0 1.05511,1.071285 3.6493,7.887353 1.03513,2.719716 2.08941,5.480719 2.34286,6.135563 1.35333,3.496612 4.12333,10.713251 4.87471,12.699999 0.19263,0.509323 1.08748,2.831042 1.98855,5.159375 1.84867,4.776864 4.07644,10.547932 6.99628,18.123958 1.09365,2.837656 2.95321,7.659687 4.13235,10.715624 5.99189,15.528936 6.67931,17.434196 6.43182,17.826546 -0.33351,0.52873 -0.5999,0.66304 -3.52067,1.77501 -1.38244,0.52631 -3.68695,1.42119 -5.12113,1.98862 -2.74178,1.08479 -3.21581,1.19107 -3.47099,0.77818 z m 119.71713,-3.20615 c -6.11913,-2.26204 -6.08542,-2.24626 -6.08542,-2.85003 0,-0.27512 0.48808,-1.855251 1.08462,-3.511405 1.63836,-4.548475 3.36588,-9.378716 4.19964,-11.742438 0.41063,-1.164166 1.3058,-3.664479 1.98924,-5.556249 0.68345,-1.891771 1.58009,-4.392083 1.99252,-5.55625 1.34044,-3.783372 3.19789,-8.970653 3.60022,-10.054166 0.21613,-0.582083 0.49366,-1.35599 0.61671,-1.719792 0.12306,-0.363802 0.78354,-2.20927 1.4677,-4.101041 0.68416,-1.891771 1.4033,-3.915833 1.59811,-4.497917 0.19481,-0.582083 0.72443,-2.070364 1.17695,-3.307291 0.45251,-1.236927 1.13384,-3.141927 1.51407,-4.233333 0.38021,-1.091407 0.81373,-2.143342 0.96333,-2.337636 0.35385,-0.459571 1.05074,-0.318987 4.27085,0.861578 1.45521,0.533511 3.61532,1.310968 4.80023,1.727684 2.87612,1.011492 3.26956,1.24631 3.26956,1.951419 0,0.328311 -0.59063,2.22927 -1.31255,4.224356 -0.72189,1.995087 -1.49082,4.133296 -1.70873,4.751577 -1.0242,2.905893 -2.84363,7.991901 -3.71491,10.384562 -0.5299,1.455209 -1.24441,3.479985 -1.58781,4.499504 -0.34338,1.019519 -0.74713,2.150613 -0.89718,2.513542 -0.15007,0.362929 -0.64751,1.731433 -1.10548,3.04112 -1.50233,4.296516 -2.41906,6.864239 -2.78662,7.805208 -0.3887,0.99513 -4.99441,13.919948 -6.12841,17.197918 -0.37756,1.0914 -0.81632,2.07185 -0.97502,2.17876 -0.53345,0.35941 -1.32672,0.1472 -6.24162,-1.66968 z m -77.45746,-9.655952 c -0.90988,-0.199366 -2.33594,-0.693428 -3.16902,-1.097912 -2.0624,-1.001348 -4.64812,-3.577521 -5.55379,-5.533284 -0.68184,-1.472425 -0.72997,-1.844297 -0.93715,-7.240683 -0.12012,-3.128697 -0.18312,-7.891197 -0.14002,-10.583332 l 0.0784,-4.894792 0.89065,-1.643245 c 1.90349,-3.511968 5.79251,-6.128768 9.97243,-6.710142 1.1186,-0.155583 9.28081,-0.367004 18.13824,-0.469826 13.87923,-0.161118 16.15994,-0.242462 16.50619,-0.588717 0.34428,-0.344273 0.37642,-1.130837 0.22461,-5.496247 -0.15275,-4.39266 -0.23861,-5.127366 -0.62323,-5.333212 -0.26783,-0.143335 -8.54244,-0.06558 -20.70755,0.194583 -16.82199,0.359759 -20.33313,0.373846 -20.68359,0.08299 -0.3659,-0.303667 -0.4126,-1.076618 -0.35071,-5.803669 l 0.0714,-5.453346 1.71979,-0.167513 c 0.94589,-0.09213 6.06557,-0.18338 11.37708,-0.202776 5.31152,-0.01939 14.2412,-0.151882 19.84376,-0.294413 10.92736,-0.277997 12.02384,-0.209441 15.08125,0.942941 3.15187,1.187984 5.77394,3.739401 6.892,6.706266 0.5028,1.334246 0.56335,2.509785 0.91989,17.859374 0.41907,18.041633 0.50002,34.501634 0.17223,35.017867 -0.31406,0.494591 -12.03565,0.811221 -12.60292,0.340434 -0.32585,-0.270435 -0.40829,-0.970208 -0.40829,-3.46584 0,-1.719842 -0.11124,-3.195738 -0.2472,-3.27977 -0.13597,-0.08403 -0.6875,0.510548 -1.22564,1.321282 -0.9774,1.472525 -3.20391,3.495778 -4.69614,4.267441 -2.51881,1.302527 -3.31295,1.393991 -14.50747,1.670859 -12.98624,0.32118 -13.94584,0.312484 -16.03517,-0.145317 z m 23.08558,-11.582325 13.22917,-0.305179 0.0744,-6.746874 c 0.0409,-3.710781 0.004,-7.033384 -0.0816,-7.383563 l -0.15599,-0.636688 -14.86738,0.206838 c -8.17707,0.11376 -15.52223,0.281207 -16.3226,0.372105 l -1.45521,0.165266 0.07,7.011458 c 0.0619,6.201447 0.12124,7.049667 0.51359,7.342187 0.5229,0.389859 1.01676,0.389195 18.99558,-0.02556 z m 82.55,-45.729026 c -1.16417,-0.434453 -3.89287,-1.410245 -6.0638,-2.168427 -2.17091,-0.758184 -4.06868,-1.571215 -4.21725,-1.806739 -0.30488,-0.483333 -0.2173,-0.800367 1.73903,-6.295776 1.7929,-5.036281 2.00642,-5.357433 3.15383,-4.743352 0.28964,0.155008 1.8586,0.757843 3.48658,1.339632 1.62795,0.58179 3.43619,1.231004 4.01828,1.442699 0.58208,0.211694 1.77271,0.629239 2.64583,0.927876 2.04211,0.698466 2.31164,0.962547 2.00755,1.966921 -0.37639,1.243158 -2.82432,8.090839 -3.28406,9.186536 -0.50048,1.192856 -0.67323,1.20032 -3.48599,0.15063 z"
         id="path830"
         inkscape:connector-curvature="0" />
      <path
         style="fill:#bb0707;stroke-width:0.26458332"
         d="m 202.27396,475.27478 c -4.7439,-1.07646 -8.10063,-4.62844 -8.8371,-9.35115 -0.14685,-0.9417 -0.33004,-5.70079 -0.40709,-10.57574 -0.17552,-11.10469 -0.46328,-26.12429 -0.53733,-28.04583 -0.0845,-2.19204 0.37094,-4.74038 1.10728,-6.19582 0.83993,-1.66021 2.979,-3.92605 4.51883,-4.78669 2.23742,-1.25052 3.39797,-1.40822 11.56374,-1.57117 21.1837,-0.42278 24.5643,-0.42797 25.99902,-0.0399 3.64031,0.98475 6.65995,3.99127 7.60434,7.57129 0.2005,0.76004 0.43447,3.77923 0.54318,7.00926 0.18215,5.41232 0.16789,5.68354 -0.30904,5.87846 -0.275,0.11237 -2.76218,0.20431 -5.52708,0.20431 h -5.02708 l -0.13229,-4.6302 c -0.0728,-2.54662 -0.22862,-4.77904 -0.34635,-4.96094 -0.26414,-0.40812 -9.30191,-0.4382 -20.66933,-0.0688 -6.13916,0.19949 -7.73127,0.32578 -8.04344,0.63796 -0.34257,0.34256 -0.33616,2.27018 0.0534,16.08267 0.24346,8.6314 0.43996,16.95881 0.43667,18.50535 -0.005,2.1844 0.0827,2.8855 0.39163,3.14185 0.31765,0.26363 3.17803,0.26215 14.22136,-0.007 7.79817,-0.19028 13.96534,-0.44733 14.1486,-0.5897 0.23055,-0.17915 0.34577,-1.64626 0.39687,-5.05354 l 0.072,-4.801 5.15938,-0.14001 c 2.83765,-0.077 5.26935,-0.0504 5.40377,0.0592 0.41178,0.33565 0.5405,11.38637 0.14963,12.84507 -1.18573,4.42513 -4.64029,7.57206 -9.05386,8.24765 -0.91241,0.13967 -3.74251,0.2618 -6.28912,0.27141 -2.54662,0.01 -8.38068,0.13366 -12.96459,0.27567 -8.63918,0.26762 -12.71741,0.29387 -13.62604,0.0877 z M 146.05,465.26509 c -2.40109,-1.07924 -4.48031,-2.13879 -4.62048,-2.35456 -0.18348,-0.28247 0.066,-1.08146 0.8907,-2.853 0.63005,-1.35337 1.2051,-2.72857 1.27788,-3.05599 0.18921,-0.85114 -0.48645,-0.77065 -1.84987,0.22037 -1.42488,1.03571 -2.48563,1.47818 -4.81248,2.00742 -1.5886,0.36132 -2.11468,0.37455 -3.58373,0.0902 -0.947,-0.18331 -2.35042,-0.61614 -3.11872,-0.96184 -0.76829,-0.34571 -1.44992,-0.62855 -1.51472,-0.62855 -0.0648,0 -0.86495,-0.34157 -1.7781,-0.75903 -0.91315,-0.41749 -4.07997,-1.7939 -7.03738,-3.05872 -2.9574,-1.26484 -5.93397,-2.60456 -6.61458,-2.97717 -4.41445,-2.41673 -6.66398,-8.13141 -5.09695,-12.9482 0.27838,-0.85572 1.29474,-3.34177 2.25859,-5.52458 0.96384,-2.18282 2.36516,-5.3975 3.11405,-7.14375 0.74888,-1.74625 1.80987,-3.8439 2.35776,-4.66143 1.52583,-2.27679 4.3085,-3.95256 7.38659,-4.44826 2.77361,-0.44669 4.60914,0.0268 10.7029,2.76093 2.515,1.12842 4.32504,1.91363 10.05417,4.3616 3.4925,1.49228 7.35611,3.18056 8.5858,3.75172 3.24095,1.50534 3.25425,1.4992 4.96042,-2.29373 2.04213,-4.5398 2.72565,-6.24184 2.72565,-6.78712 0,-0.5621 -0.66991,-0.92427 -5.55625,-3.00365 -3.36497,-1.43198 -11.29667,-4.88784 -13.62604,-5.93688 -0.58208,-0.26215 -3.79677,-1.64095 -7.14375,-3.06396 -3.34698,-1.42303 -6.25157,-2.73973 -6.45464,-2.92602 -0.31265,-0.28679 -0.1633,-0.81783 0.97469,-3.46573 1.96214,-4.56557 2.70577,-6.14098 2.97814,-6.3093 0.13318,-0.0823 0.75057,0.0246 1.37198,0.23738 1.12779,0.38637 11.40436,4.75673 14.30069,6.08174 0.84106,0.38478 1.58222,0.69958 1.64702,0.69958 0.0648,0 0.86495,0.34158 1.7781,0.75904 0.91315,0.41749 4.09983,1.80239 7.08152,3.07761 8.36025,3.57555 9.22225,4.02566 10.86105,5.67158 0.80952,0.81301 1.80964,2.18265 2.23408,3.05948 0.70756,1.46172 0.76962,1.82856 0.78332,4.63021 l 0.0149,3.04271 -1.89356,4.36562 c -1.04147,2.4011 -3.5815,8.23516 -5.64452,12.96459 -3.13683,7.19111 -8.8442,20.37807 -10.7513,24.84101 -1.13196,2.64901 -2.1076,4.39864 -2.48041,4.44817 -0.21828,0.029 -2.36141,-0.83026 -4.7625,-1.90949 z m -0.34052,-13.15834 c 0.13939,-0.1819 1.24045,-2.65245 2.44681,-5.49011 1.20636,-2.83765 2.42245,-5.61263 2.70243,-6.16661 0.27998,-0.55399 0.43953,-1.22627 0.35456,-1.494 -0.0958,-0.30176 -1.08117,-0.88924 -2.59274,-1.54575 -1.34104,-0.58242 -6.03071,-2.61109 -10.42149,-4.50818 -4.39079,-1.89706 -8.67704,-3.76851 -9.525,-4.15877 -0.84797,-0.39026 -1.98845,-0.869 -2.53442,-1.06384 -0.91893,-0.32798 -1.03192,-0.31213 -1.52135,0.2132 -0.29078,0.3121 -0.5287,0.68083 -0.5287,0.81934 0,0.13853 -0.23532,0.74115 -0.52293,1.33919 -1.31956,2.7437 -4.50415,10.34788 -4.50415,10.75502 0,0.24966 0.14883,0.56933 0.33073,0.71038 0.1819,0.14102 3.60495,1.66131 7.60677,3.37841 7.55957,3.24366 9.81972,4.22402 10.71563,4.64809 2.48728,1.17729 6.72289,2.88094 7.1775,2.88692 0.3096,0.004 0.67696,-0.14139 0.81635,-0.32329 z m 139.68466,11.75313 c -0.24085,-0.26611 -0.43789,-0.55411 -0.43789,-0.63997 0,-0.0859 -0.52353,-1.26712 -1.16342,-2.62501 -0.6399,-1.3579 -2.73336,-5.86216 -4.65215,-10.00951 -1.91878,-4.14734 -3.91067,-8.43359 -4.42645,-9.525 -0.51575,-1.0914 -1.52479,-3.27855 -2.24226,-4.86034 -0.71747,-1.58176 -2.07156,-4.48259 -3.00908,-6.44631 -0.9375,-1.96368 -1.70455,-3.60643 -1.70455,-3.6505 0,-0.0661 -2.82163,-6.15778 -6.61401,-14.2793 -0.40771,-0.87313 -1.11042,-2.39117 -1.56156,-3.37344 -1.71912,-3.74298 -2.38044,-5.1707 -3.5234,-7.60677 -0.64863,-1.38245 -2.05013,-4.41854 -3.11445,-6.74687 -1.06432,-2.32834 -2.03624,-4.34645 -2.15981,-4.48469 -0.51342,-0.57436 -0.22053,-1.4101 0.6352,-1.81258 7.13913,-3.35778 8.327,-3.88919 8.69337,-3.88919 0.23825,0 1.6246,2.78974 4.076,8.20208 0.62614,1.38245 1.80431,3.91946 2.61814,5.63777 0.81383,1.71833 1.47968,3.16389 1.47968,3.21236 0,0.0485 0.75287,1.67867 1.67302,3.62265 0.92016,1.94397 3.20733,6.86826 5.08259,10.94284 4.44368,9.65521 4.65137,10.05417 5.23449,10.05417 0.38372,0 1.85182,-3.2031 7.27604,-15.875 l 6.79532,-15.875 2.11667,-1.07886 c 1.16416,-0.59336 3.9026,-1.89614 6.08541,-2.89505 2.18282,-0.9989 4.26358,-1.96881 4.62394,-2.15535 0.36034,-0.1865 0.75488,-0.23942 0.87675,-0.11755 0.17209,0.17209 -5.11955,13.01565 -8.02428,19.47598 -1.04405,2.32206 -8.23272,19.07585 -8.34422,19.44687 -0.23177,0.77121 0.37187,1.09749 4.14496,2.24049 2.09685,0.63519 5.59837,1.71157 7.78119,2.39194 3.73552,1.16433 4.63436,1.43756 7.73906,2.35252 0.69122,0.2037 3.04271,0.92707 5.22552,1.6075 2.18281,0.6804 6.64766,2.05195 9.92188,3.04784 3.27421,0.99592 6.31031,1.92958 6.74687,2.07481 0.43656,0.14523 1.12117,0.33571 1.52136,0.42328 1.13445,0.24823 0.86455,0.7697 -0.79375,1.53345 -4.05146,1.86595 -6.476,2.99148 -8.53282,3.96115 -1.23692,0.58315 -2.4942,1.1552 -2.79392,1.27127 -0.58055,0.22482 -1.46963,0.0212 -5.80504,-1.32934 -1.4552,-0.45331 -3.59833,-1.11096 -4.7625,-1.4614 -1.16416,-0.35044 -4.67651,-1.4214 -7.8052,-2.3799 -3.1287,-0.95851 -6.22433,-1.90296 -6.87917,-2.09884 -2.53198,-0.75731 -3.96809,-1.19247 -7.67292,-2.32494 -2.11005,-0.64498 -3.98528,-1.11911 -4.16719,-1.05357 -0.46333,0.16687 -0.42142,0.42833 0.33073,2.06383 0.36381,0.79102 0.97298,2.12285 1.35372,2.9596 0.38076,0.83674 1.1689,2.53338 1.75143,3.77031 0.58254,1.23693 1.68648,3.61818 2.45325,5.29167 0.76676,1.67349 1.94315,4.20812 2.61421,5.63253 0.67107,1.42438 1.2201,2.82474 1.2201,3.11189 0,0.38283 -0.44103,0.72504 -1.65364,1.28318 -0.90951,0.4186 -2.95016,1.36975 -4.53478,2.11362 -1.58461,0.74391 -2.96516,1.35253 -3.06784,1.35253 -0.10271,0 -0.38378,-0.21773 -0.6246,-0.48385 z m 70.33815,-44.77916 c -1.74625,-1.59727 -3.52038,-3.24887 -3.94255,-3.67025 l -0.76753,-0.76618 1.42899,-1.57747 c 0.78597,-0.8676 3.57214,-3.92742 6.19151,-6.79958 2.61938,-2.87219 6.25078,-6.85842 8.06979,-8.85833 1.81901,-1.99991 4.64675,-5.09707 6.28386,-6.88255 1.86785,-2.03714 2.97656,-3.45877 2.97656,-3.8167 0,-0.40436 -1.39846,-1.82925 -4.80502,-4.89593 -4.30712,-3.87736 -4.87013,-4.30127 -5.43332,-4.09101 -0.34558,0.12901 -2.02306,1.79475 -3.7278,3.70165 -12.37943,13.84761 -15.48617,17.0238 -17.61286,18.00649 -1.48826,0.68767 -1.88434,0.75141 -4.66892,0.75141 -4.51053,0 -4.99409,-0.27575 -12.50095,-7.12904 -5.69987,-5.20361 -6.07121,-5.60096 -7.01146,-7.5021 -0.89315,-1.80599 -1.00198,-2.2543 -1.08437,-4.46656 -0.15065,-4.04596 0.68313,-5.87634 4.62301,-10.14881 1.14573,-1.24243 4.40487,-4.81142 7.24252,-7.93104 2.83766,-3.11963 6.05235,-6.63581 7.14375,-7.81373 1.09141,-1.1779 3.175,-3.46975 4.63021,-5.09296 1.45521,-1.6232 2.81096,-2.95432 3.01279,-2.95799 0.55694,-0.0101 7.96742,6.6716 7.96742,7.18394 0,0.12358 -1.63711,2.02403 -3.63802,4.22325 -2.00091,2.19919 -5.1263,5.63668 -6.94531,7.63889 -2.78525,3.06573 -6.5491,7.19119 -11.44122,12.54051 -1.57642,1.72373 -1.56184,1.92257 0.2635,3.59145 0.87828,0.80301 2.84374,2.62089 4.36768,4.03971 1.52395,1.41883 2.99501,2.57768 3.26906,2.57522 0.45723,-0.004 3.32883,-2.97251 8.70035,-8.99366 5.45462,-6.11429 9.81311,-10.7995 10.67237,-11.47242 0.53311,-0.41748 1.62414,-1.07233 2.42451,-1.4552 1.32524,-0.63395 1.73876,-0.69551 4.6302,-0.68932 4.70027,0.0101 4.86601,0.10803 13.25621,7.8365 5.75495,5.30109 6.30714,5.91 7.28329,8.0317 0.75385,1.63843 0.85368,2.12677 0.86548,4.23333 0.0143,2.549 -0.47371,4.48612 -1.56631,6.21771 -0.32136,0.50932 -2.1663,2.65245 -4.09985,4.7625 -1.93352,2.11005 -5.19419,5.67724 -7.24593,7.92707 -7.49787,8.2219 -12.70971,13.93344 -13.95243,15.29011 -0.6998,0.76399 -1.36504,1.3833 -1.47828,1.37626 -0.11327,-0.007 -1.63468,-1.31964 -3.38093,-2.91687 z m -288.309307,1.03862 c -3.722172,-3.99785 -5.803834,-6.56997 -5.595448,-6.91383 0.219726,-0.36253 3.069209,-2.95846 7.760687,-7.07011 1.411359,-1.23693 4.442071,-3.91584 6.73491,-5.95313 2.292843,-2.03729 4.661633,-4.11855 5.263981,-4.62505 0.602348,-0.50649 2.928734,-2.53055 5.169747,-4.49791 2.24101,-1.96737 5.217573,-4.57012 6.614583,-5.78393 3.854408,-3.34888 4.788974,-4.32001 4.788974,-4.97633 0,-0.32491 -0.119128,-0.66437 -0.264726,-0.75436 -0.242297,-0.14975 -3.81486,-4.15477 -9.921732,-11.12276 -6.74687,-7.69824 -9.755984,-11.02434 -10.089446,-11.15229 -0.451514,-0.17328 -0.769959,0.0545 -3.584903,2.56368 -1.224381,1.0914 -4.839788,4.28836 -8.034235,7.10438 -3.194444,2.81598 -6.403192,5.67348 -7.13055,6.34999 -0.727355,0.67649 -3.049074,2.76374 -5.159375,4.63828 -2.110298,1.87455 -4.777981,4.2558 -5.928177,5.29167 -3.896612,3.50925 -7.167849,6.24448 -7.47091,6.24676 -0.429006,0.003 -6.975227,-7.44522 -6.969705,-7.93028 0.0043,-0.37494 1.055024,-1.35511 7.663553,-7.14872 1.410912,-1.23693 4.459727,-3.9275 6.775146,-5.97906 6.491415,-5.75167 8.813213,-7.78502 10.824435,-9.47978 1.018646,-0.85836 2.804583,-2.4212 3.96875,-3.473 2.072169,-1.87214 11.197921,-9.94386 16.286816,-14.40566 1.410772,-1.23693 4.438986,-3.91583 6.729365,-5.95312 2.290379,-2.0373 4.535337,-3.9728 4.988796,-4.30112 l 0.824468,-0.59696 3.64309,3.63612 c 2.0037,1.99985 3.64309,3.76621 3.64309,3.92522 0,0.15902 -1.813433,1.88704 -4.029852,3.84001 -2.21642,1.95299 -4.74794,4.20574 -5.625603,5.0061 -0.877663,0.80036 -3.167176,2.81559 -5.087808,4.47826 -1.920632,1.66269 -3.556683,3.19148 -3.635671,3.39733 -0.265679,0.69233 0.114879,0.80629 1.379127,0.41298 0.892082,-0.27754 2.025356,-0.35724 3.902932,-0.27445 4.497414,0.19828 5.266788,0.77007 13.229167,9.83189 2.037291,2.3186 4.407341,4.99653 5.266771,5.95096 3.81124,4.23254 4.47365,5.35871 4.93867,8.39642 0.40527,2.64739 0.0566,4.78067 -1.15459,7.06302 -0.81555,1.53689 -4.0863,4.72956 -11.690355,11.4113 -1.324867,1.16416 -4.360535,3.84307 -6.745931,5.95312 -2.385396,2.11005 -4.880925,4.31072 -5.545616,4.8904 -0.664692,0.57968 -2.344222,2.06796 -3.73229,3.30729 -6.651267,5.93863 -10.924063,9.68232 -11.284667,9.88729 -0.292505,0.16627 -0.743696,-0.14689 -1.715468,-1.19062 z m 83.460387,-43.60545 c -0.76138,-0.27403 -1.71388,-0.73797 -2.11666,-1.031 -0.40278,-0.293 -13.9004,-13.72693 -29.9947,-29.85315 -32.637582,-32.70228 -30.560577,-30.38062 -30.354847,-33.93067 0.06244,-1.07746 0.322397,-2.19294 0.68291,-2.93034 0.433404,-0.88648 14.252397,-14.85209 54.099867,-54.67378 51.50878,-51.47547 53.5714,-53.50044 54.94652,-53.9433 2.02265,-0.6514 3.83555,-0.57219 5.69171,0.24869 1.31286,0.58061 2.51803,1.64752 7.94526,7.03371 3.5187,3.4921 6.56428,6.34927 6.76794,6.34927 0.20366,0 3.7683,-3.37405 7.92144,-7.49789 4.15313,-4.12385 8.14646,-7.92648 8.87407,-8.45029 0.7276,-0.52381 2.85828,-2.49682 4.73485,-4.38446 l 3.41193,-3.43208 -0.22266,-1.01608 c -0.12246,-0.55884 -0.22433,-1.73683 -0.22638,-2.61776 -0.009,-4.01172 3.74119,-6.57771 7.90867,-5.41089 1.13458,0.31766 1.20521,0.30179 2.21462,-0.49768 3.12889,-2.47812 6.94063,-2.55668 10.05277,-0.20719 1.02738,0.77562 1.48825,0.6839 2.05322,-0.40862 0.6813,-1.31747 3.57912,-3.99394 5.32495,-4.91815 3.19632,-1.69209 6.57542,-2.21581 9.75929,-1.51257 1.89187,0.41786 4.87976,1.64896 5.51092,2.27066 0.13825,0.13617 0.49438,0.24759 0.79137,0.24759 0.36235,0 7.0271,-6.48494 20.25801,-19.71146 21.59654,-21.58941 20.39274,-20.55023 22.01032,-19.0005 1.65282,1.5835 2.71833,0.34664 -19.10167,22.17375 -10.91407,10.91762 -19.84375,19.98821 -19.84375,20.15685 0,0.16865 0.30443,0.91276 0.67654,1.65358 3.22984,6.43051 1.03134,14.72781 -4.91313,18.54236 -0.72581,0.46576 -1.31966,1.01557 -1.31966,1.2218 0,0.20623 0.28879,0.81889 0.64174,1.36148 0.90935,1.39791 1.29651,3.10426 1.11086,4.89575 -0.17709,1.70858 -0.6589,2.80603 -1.81391,4.13163 -0.65582,0.7527 -0.75681,1.05086 -0.62746,1.85209 0.46993,2.91051 0.47263,3.18609 0.0439,4.47696 -0.56393,1.69785 -2.19715,3.25339 -3.92329,3.73668 -1.17396,0.32868 -2.03513,0.29984 -4.38981,-0.14703 -0.85686,-0.16261 -1.00185,-0.0529 -4.10705,3.10676 -2.87581,2.92628 -3.27303,3.44452 -3.72734,4.86284 -0.48782,1.52297 -0.82368,1.90532 -8.26222,9.40613 -4.26455,4.30025 -7.75373,7.98593 -7.75373,8.1904 0,0.20447 2.85073,3.23784 6.33494,6.74082 7.1341,7.17251 7.68076,7.94857 7.68539,10.91083 0.003,1.18835 -0.18407,2.07124 -0.66866,3.175 -0.61294,1.3961 -5.23767,6.09749 -53.24739,54.12994 -28.91688,28.93057 -53.11193,52.99366 -53.76678,53.47356 -1.38168,1.01253 -3.39197,1.7472 -4.74349,1.73355 -0.51978,-0.005 -1.568,-0.23376 -2.32939,-0.50779 z m 48.94141,-65.29673 c 25.43075,-25.42918 46.23772,-46.41201 46.23772,-46.6285 0,-0.51664 -5.56163,-6.09076 -6.07713,-6.09076 -0.21869,0 -9.98385,9.57086 -21.70035,21.26853 -20.52062,20.4877 -21.36101,21.28999 -22.89023,21.85234 -1.15911,0.42627 -1.98018,0.55353 -3.04271,0.47159 -2.95979,-0.22823 -3.15899,-0.39301 -16.0394,-13.26933 -11.32553,-11.32194 -11.9685,-12.01608 -12.52556,-13.52209 -0.74548,-2.01541 -0.65793,-4.20655 0.24224,-6.0625 0.49493,-1.02042 5.17433,-5.82841 21.75932,-22.35728 11.62084,-11.58151 21.1258,-21.22392 21.12214,-21.42756 -0.0112,-0.62185 -5.62558,-6.14243 -6.1592,-6.05627 -0.60828,0.0982 -92.44867,91.58858 -92.68433,92.3311 -0.15012,0.47297 3.23938,3.9728 22.4119,23.14144 12.42382,12.42131 22.70556,22.5842 22.84831,22.5842 0.14275,0 21.06653,-20.8057 46.49728,-46.23491 z m 10.85349,-46.03853 c 9.67662,-9.66928 17.48038,-17.67311 17.569,-18.01943 0.13717,-0.53602 -0.50137,-1.28467 -4.5698,-5.35781 -2.99043,-2.9939 -4.92455,-4.73474 -5.26043,-4.73474 -0.63431,0 -35.58996,34.83076 -35.58996,35.4628 0,0.51072 9.55399,10.04554 10.06572,10.04554 0.20676,0 8.21023,-7.82836 17.78547,-17.39636 z m 33.58785,-33.61252 c 2.00666,-2.00666 3.64847,-3.82658 3.64847,-4.04428 0,-0.49234 -9.55545,-10.03434 -10.04848,-10.03434 -0.3913,0 -7.28608,6.70035 -7.72771,7.50978 -0.23506,0.43082 0.38561,1.15653 4.58228,5.35781 3.01354,3.01685 5.05187,4.85949 5.37557,4.85949 0.31722,0 1.95016,-1.42875 4.16987,-3.64846 z m 18.80806,-21.17742 c 1.99422,-2.01257 3.62582,-3.81934 3.62582,-4.01504 0,-0.59376 -7.71716,-8.20074 -8.31951,-8.20074 -0.62956,0 -7.82007,7.049 -7.82007,7.66617 0,0.62605 7.70696,8.20883 8.34327,8.20883 0.34881,0 1.84851,-1.31585 4.17049,-3.65922 z M 80.830209,150.91928 c -2.449595,-0.60978 -4.460113,-2.01156 -6.953528,-4.84818 -1.123267,-1.27788 -3.947305,-4.44994 -6.275639,-7.04903 -2.328333,-2.59908 -5.240507,-5.8613 -6.471494,-7.24937 -1.23099,-1.38806 -2.305886,-2.58328 -2.388658,-2.65604 -0.08277,-0.0728 -1.526527,-1.6801 -3.20834,-3.57187 C 51.274189,120.75481 43.807494,112.39629 38.629167,106.62246 28.879298,95.75137 27.252084,93.863386 27.252084,93.422137 c 0,-0.565946 8.347741,-8.094016 8.975312,-8.094016 0.421161,0 1.629839,1.276765 8.652391,9.139814 9.919414,11.106625 12.090842,13.482055 12.32417,13.482055 0.165955,0 0.179369,-0.5034 0.03702,-1.38906 -0.370041,-2.30223 -0.190167,-5.46665 0.39915,-7.022018 1.204992,-3.180307 2.07073,-4.215725 7.711959,-9.223486 1.81901,-1.614746 5.788509,-5.154191 8.821105,-7.865429 5.559729,-4.970576 7.318854,-6.236494 9.944799,-7.156564 1.938358,-0.679159 5.452348,-0.692525 7.427846,-0.02826 2.752588,0.925568 2.597483,0.775023 14.299884,13.879353 19.49961,21.835624 17.84699,19.567484 17.84699,24.494014 v 3.175 l -1.1026,2.24895 c -1.31446,2.68111 -2.33706,3.73141 -11.72101,12.03855 -5.65735,5.00816 -8.4923,7.53676 -13.348766,11.90624 -2.587829,2.32834 -5.377698,4.73582 -6.199717,5.34996 -2.300766,1.71895 -4.45703,2.46916 -7.447698,2.5912 -1.382448,0.0564 -2.751666,0.0433 -3.042708,-0.0292 z m 6.274173,-13.53806 c 0.914831,-0.83877 2.734887,-2.47588 4.044572,-3.63802 1.309685,-1.16215 2.857497,-2.54505 3.439583,-3.07311 0.582086,-0.52806 1.722628,-1.54009 2.534539,-2.24896 2.724095,-2.37836 8.561544,-7.59964 10.301754,-9.21436 0.94809,-0.87972 2.28754,-2.09854 2.97657,-2.7085 0.68902,-0.60996 1.25277,-1.23975 1.25277,-1.39954 0,-0.15978 -0.74414,-1.09634 -1.65365,-2.08124 -1.84363,-1.99646 -6.63322,-7.35624 -9.83809,-11.0093 -1.154462,-1.31591 -2.761806,-3.110027 -3.571873,-3.98692 -0.810067,-0.87689 -3.312858,-3.653914 -5.561761,-6.17116 -2.2489,-2.517248 -4.297445,-4.688416 -4.552318,-4.824822 -0.380066,-0.203404 -1.643195,0.806746 -7.023587,5.616911 -3.608101,3.225702 -7.15876,6.411986 -7.890356,7.080625 -0.731594,0.668646 -3.677341,3.299306 -6.546102,5.845916 -3.206654,2.84657 -5.216829,4.81842 -5.218266,5.11878 -0.0013,0.26871 0.444151,0.99137 0.989854,1.6059 0.545703,0.61454 2.956719,3.30242 5.357813,5.97307 2.401094,2.67065 5.437187,6.06238 6.746875,7.53716 10.789542,12.14968 11.675734,13.10259 12.185168,13.10259 0.199748,0 1.111676,-0.68626 2.026505,-1.52502 z M 301.59418,118.29316 c -2.39898,-1.87834 -4.51702,-3.60221 -4.70675,-3.83084 -0.35973,-0.43346 -0.53129,-0.19876 9.38244,-12.8365 1.30162,-1.659286 3.31909,-4.241751 4.48326,-5.738811 1.16416,-1.49706 4.10612,-5.259149 6.53767,-8.360198 2.43152,-3.101052 7.07495,-9.022797 10.31875,-13.159435 3.24376,-4.136639 6.03035,-7.564197 6.19241,-7.616796 0.30787,-0.09992 9.35302,6.8522 9.68351,7.442769 0.11753,0.210015 -0.55962,1.276799 -1.78332,2.809446 -1.83694,2.300703 -2.45059,3.309879 -2.17823,3.582241 0.0615,0.0615 0.99512,-0.198414 2.07468,-0.577596 1.74913,-0.614352 2.25097,-0.676087 4.60869,-0.566981 3.10407,0.143648 5.1475,0.857338 7.5125,2.623799 3.50124,2.615152 10.82308,8.386069 12.02976,9.481571 2.7672,2.512274 4.40502,6.093047 4.39968,9.619021 -0.005,3.43147 -0.62071,4.66756 -5.22311,10.48931 -1.50297,1.90112 -2.83531,3.33998 -3.13368,3.38417 -0.33393,0.0494 -1.97897,-1.06695 -4.61253,-3.13027 -2.25139,-1.76393 -4.36819,-3.47496 -4.704,-3.80229 l -0.61055,-0.59515 2.04393,-2.62458 c 1.12416,-1.44352 2.4407,-3.0925 2.92566,-3.6644 0.48495,-0.5719 0.88172,-1.243882 0.88172,-1.493302 0,-0.28235 -3.84471,-3.462795 -10.18781,-8.427632 -8.52403,-6.671884 -10.26721,-7.931632 -10.67419,-7.713829 -0.44614,0.238762 -3.68149,4.326233 -23.30791,29.446593 -3.7193,4.76044 -6.94878,8.65974 -7.17659,8.6651 -0.2278,0.005 -2.37701,-1.52707 -4.77599,-3.40541 z M 149.79021,106.69322 c -0.13594,-0.25466 -1.08488,-2.66567 -2.10876,-5.35781 -1.02388,-2.692134 -4.73371,-12.336196 -8.24407,-21.431247 -3.51036,-9.095052 -7.02215,-18.203333 -7.80397,-20.240624 -0.78182,-2.037292 -2.56767,-6.680729 -3.96856,-10.31875 -1.40088,-3.63802 -3.36906,-8.757708 -4.37373,-11.377083 -1.00468,-2.619374 -2.17651,-5.647261 -2.60409,-6.728636 -0.42757,-1.081376 -0.71883,-2.118784 -0.64724,-2.305347 0.0716,-0.186563 1.10138,-0.71134 2.28842,-1.166169 1.18704,-0.45483 2.93216,-1.12382 3.87804,-1.486651 0.94589,-0.362829 2.4693,-0.967731 3.38537,-1.344227 2.03241,-0.8353 1.98934,-0.868866 3.31019,2.579989 0.52946,1.382448 1.62646,4.239948 2.43778,6.35 0.81132,2.110052 2.31937,6.039114 3.35121,8.73125 1.03184,2.692135 2.0817,5.430572 2.33303,6.085416 0.25132,0.654844 0.95876,2.500312 1.57209,4.101041 0.61332,1.600729 1.41184,3.684323 1.77449,4.630209 0.36264,0.945885 0.76859,1.957916 0.9021,2.248958 0.13351,0.291041 0.94302,2.374635 1.79891,4.630208 1.96717,5.184192 5.50865,14.396888 12.29897,31.994166 2.1506,5.573327 2.26277,5.961997 1.85177,6.416147 -0.24063,0.26589 -0.53891,0.48343 -0.66285,0.48343 -0.22085,0 -4.60318,1.65198 -5.64577,2.12825 -0.55626,0.2541 -4.70502,1.8405 -4.8133,1.8405 -0.0346,0 -0.17409,-0.20835 -0.31003,-0.46302 z m 123.39208,-1.70483 c -1.97405,-0.79984 -7.85145,-2.90478 -8.52474,-3.05307 -1.25436,-0.27628 -1.26234,-0.67228 -0.08,-3.971716 0.61304,-1.710766 1.64796,-4.598765 2.29987,-6.417775 0.65188,-1.81901 1.52125,-4.259792 1.93188,-5.423958 0.68096,-1.930509 2.25534,-6.313191 3.84937,-10.715625 0.86625,-2.392396 3.30478,-9.253277 3.57352,-10.054166 0.12207,-0.363802 0.60044,-1.673489 1.06304,-2.910416 0.4626,-1.236927 0.99782,-2.725209 1.18935,-3.307292 0.19156,-0.582083 0.88242,-2.546614 1.53525,-4.365625 0.65283,-1.81901 1.69045,-4.736041 2.30582,-6.482291 0.61536,-1.74625 1.26746,-3.336385 1.44907,-3.533632 0.32289,-0.350658 1.88232,0.09009 5.94407,1.679964 0.50933,0.199363 1.9793,0.747892 3.26663,1.218956 1.2873,0.471062 2.4008,1.013482 2.47446,1.205373 0.117,0.304922 -0.655,2.613501 -3.87919,11.600172 -0.41767,1.164166 -1.31268,3.664479 -1.9889,5.556249 -0.67625,1.891771 -1.35395,3.73724 -1.50601,4.101042 -0.15208,0.363802 -0.55636,1.494896 -0.89839,2.513541 -0.34203,1.018646 -0.99727,2.864115 -1.45608,4.101042 -0.45881,1.236927 -0.99094,2.725208 -1.18248,3.307291 -0.19155,0.582084 -0.89262,2.57638 -1.55792,4.431771 -0.66529,1.855391 -1.73109,4.831953 -2.36841,6.614583 -0.63733,1.78263 -1.77824,4.967552 -2.53535,7.077604 -0.75708,2.110048 -1.64981,4.610368 -1.98382,5.556248 -0.69903,1.97954 -0.928,2.07924 -2.921,1.27173 z M 192.48438,94.067625 c -3.77555,-0.800957 -6.38925,-2.464456 -8.32727,-5.299921 -1.52681,-2.23384 -1.60083,-2.839958 -1.66662,-13.645821 l -0.0603,-9.902095 0.74799,-1.498991 c 0.89688,-1.797378 3.49547,-4.380897 5.34526,-5.314272 2.95877,-1.492954 2.91952,-1.489523 21.55571,-1.883892 9.53161,-0.201702 17.54943,-0.457621 17.81736,-0.568711 0.4595,-0.190511 0.47668,-0.511593 0.30267,-5.654513 -0.12238,-3.617013 -0.29045,-5.564762 -0.49925,-5.785911 -0.25309,-0.26806 -4.31415,-0.246491 -20.72782,0.110088 -16.66658,0.362074 -20.48845,0.380894 -20.82384,0.102542 -0.34473,-0.286102 -0.41079,-1.14259 -0.41079,-5.326301 0,-4.481684 0.0468,-5.009221 0.46302,-5.221377 0.25466,-0.129799 1.89177,-0.253862 3.63802,-0.275696 1.74625,-0.02183 9.48532,-0.170815 17.19792,-0.331068 7.7126,-0.160252 16.40417,-0.241458 19.31458,-0.180456 5.22243,0.109461 5.3172,0.121748 7.24263,0.939067 3.20624,1.361006 5.54769,3.685336 6.65408,6.605423 0.56415,1.488945 0.58551,1.969053 0.79773,17.934069 0.11993,9.022291 0.3041,20.392759 0.40928,25.267707 0.16323,7.566069 0.13532,8.909936 -0.19069,9.180472 -0.55848,0.463458 -11.02901,0.794782 -11.81546,0.373883 -0.5498,-0.294241 -0.58402,-0.489053 -0.58402,-3.324318 0,-1.656466 -0.0723,-3.20009 -0.1606,-3.430272 -0.26674,-0.695108 -0.84704,-0.473046 -1.30926,0.501012 -1.16432,2.453635 -4.42605,5.036439 -7.52632,5.959742 -1.5559,0.463365 -3.04482,0.55658 -12.58993,0.788194 -12.82584,0.311219 -12.76583,0.3117 -14.7941,-0.118584 z m 23.01875,-11.081519 12.96458,-0.303818 0.0645,-7.276042 c 0.038,-4.294346 -0.0392,-7.438678 -0.18849,-7.672916 -0.30605,-0.480211 -0.87327,-0.485156 -19.19055,-0.167344 -7.27605,0.126244 -13.43753,0.338791 -13.69219,0.472332 -0.42304,0.221832 -0.46302,0.842311 -0.46302,7.186075 0,5.855988 0.0645,7.03536 0.41188,7.531314 0.4913,0.701437 0.15686,0.697603 20.09333,0.230399 z m 82.02083,-46.365311 c -1.01865,-0.372544 -3.68292,-1.318506 -5.92058,-2.102136 -2.23769,-0.783629 -4.13007,-1.486331 -4.20531,-1.56156 -0.22405,-0.224054 2.82897,-9.095094 3.5529,-10.323523 0.33242,-0.564064 0.20103,-0.59884 6.83757,1.809715 1.01865,0.36969 2.80459,1.01271 3.96875,1.428933 2.00652,0.717384 2.11537,0.797079 2.0918,1.531335 -0.0138,0.42601 -0.65072,2.500971 -1.41563,4.611023 -0.76491,2.110052 -1.47595,4.134114 -1.58009,4.497916 -0.25945,0.906232 -1.07508,0.932762 -3.32941,0.108297 z"
         id="path828"
         inkscape:connector-curvature="0" />
    </g>
  </g>
</svg>
